<svg xmlns="http://www.w3.org/2000/svg" xmlns:xlink="http://www.w3.org/1999/xlink" width="500" zoomAndPan="magnify" viewBox="0 0 375 374.999991" height="500" preserveAspectRatio="xMidYMid meet" version="1.0"><defs><g/><clipPath id="7caedc0e8f"><path d="M 303.191406 108 L 342 108 L 342 140 L 303.191406 140 Z M 303.191406 108 " clip-rule="nonzero"/></clipPath><clipPath id="cb56ff6f7a"><path d="M 135 285 L 162 285 L 162 312.246094 L 135 312.246094 Z M 135 285 " clip-rule="nonzero"/></clipPath><clipPath id="21d30d05a2"><path d="M 63 73 L 213.777344 73 L 213.777344 290 L 63 290 Z M 63 73 " clip-rule="nonzero"/></clipPath><clipPath id="e79a0ee63b"><path d="M 254.496094 161.566406 L 309.742188 161.566406 L 309.742188 165.316406 L 254.496094 165.316406 Z M 254.496094 161.566406 " clip-rule="nonzero"/></clipPath><clipPath id="fdf9997dac"><path d="M 124.503906 163.441406 L 179.75 163.441406 L 179.75 167.191406 L 124.503906 167.191406 Z M 124.503906 163.441406 " clip-rule="nonzero"/></clipPath></defs><rect x="-37.5" width="450" fill="#ffffff" y="-37.499999" height="449.999989" fill-opacity="1"/><rect x="-37.5" width="450" fill="#ffffff" y="-37.499999" height="449.999989" fill-opacity="1"/><rect x="-37.5" width="450" fill="#ffffff" y="-37.499999" height="449.999989" fill-opacity="1"/><g fill="#000000" fill-opacity="1"><g transform="translate(127.431969, 151.068485)"><g><path d="M 22.046875 0 L 20.875 -14.53125 L 20.734375 -14.53125 L 15.71875 -0.15625 L 12.390625 -0.15625 L 7.359375 -14.53125 L 7.21875 -14.53125 L 6.0625 0 L 0.46875 0 L 2.671875 -24.5 L 8.609375 -24.5 L 14.046875 -10.359375 L 19.484375 -24.5 L 25.421875 -24.5 L 27.625 0 Z M 22.046875 0 "/></g></g></g><g fill="#000000" fill-opacity="1"><g transform="translate(157.417446, 151.068485)"><g><path d="M 15.796875 -24.5 L 15.796875 -19.609375 L 7.359375 -19.609375 L 7.359375 -14.734375 L 15.453125 -14.734375 L 15.453125 -9.828125 L 7.359375 -9.828125 L 7.359375 -4.90625 L 15.796875 -4.90625 L 15.796875 0 L 1.78125 0 L 1.78125 -24.5 Z M 15.796875 -24.5 "/></g></g></g><g fill="#000000" fill-opacity="1"><g transform="translate(176.537254, 151.068485)"><g><path d="M 1.78125 -24.5 L 8.875 -24.5 C 12.28125 -24.5 15.191406 -23.335938 17.609375 -21.015625 C 20.023438 -18.691406 21.234375 -15.773438 21.234375 -12.265625 C 21.234375 -8.742188 20.03125 -5.816406 17.625 -3.484375 C 15.21875 -1.160156 12.300781 0 8.875 0 L 1.78125 0 Z M 7.359375 -4.984375 L 8.234375 -4.984375 C 10.265625 -4.984375 11.925781 -5.671875 13.21875 -7.046875 C 14.519531 -8.429688 15.179688 -10.160156 15.203125 -12.234375 C 15.203125 -14.316406 14.550781 -16.050781 13.25 -17.4375 C 11.957031 -18.820312 10.285156 -19.515625 8.234375 -19.515625 L 7.359375 -19.515625 Z M 7.359375 -4.984375 "/></g></g></g><g fill="#000000" fill-opacity="1"><g transform="translate(200.347705, 151.068485)"><g><path d="M 7.359375 -24.5 L 7.359375 0 L 1.78125 0 L 1.78125 -24.5 Z M 7.359375 -24.5 "/></g></g></g><g fill="#000000" fill-opacity="1"><g transform="translate(211.39248, 151.068485)"><g><path d="M 14.828125 -5.046875 C 15.671875 -5.046875 16.492188 -5.175781 17.296875 -5.4375 C 18.097656 -5.695312 18.6875 -5.941406 19.0625 -6.171875 L 19.640625 -6.5625 L 22.015625 -1.8125 C 21.929688 -1.75 21.816406 -1.664062 21.671875 -1.5625 C 21.535156 -1.46875 21.210938 -1.285156 20.703125 -1.015625 C 20.203125 -0.753906 19.664062 -0.523438 19.09375 -0.328125 C 18.519531 -0.128906 17.769531 0.046875 16.84375 0.203125 C 15.914062 0.367188 14.953125 0.453125 13.953125 0.453125 C 11.679688 0.453125 9.523438 -0.101562 7.484375 -1.21875 C 5.441406 -2.34375 3.796875 -3.882812 2.546875 -5.84375 C 1.304688 -7.8125 0.6875 -9.929688 0.6875 -12.203125 C 0.6875 -13.929688 1.050781 -15.585938 1.78125 -17.171875 C 2.507812 -18.753906 3.484375 -20.109375 4.703125 -21.234375 C 5.921875 -22.367188 7.34375 -23.269531 8.96875 -23.9375 C 10.59375 -24.613281 12.253906 -24.953125 13.953125 -24.953125 C 15.546875 -24.953125 17.007812 -24.765625 18.34375 -24.390625 C 19.675781 -24.015625 20.617188 -23.632812 21.171875 -23.25 L 22.015625 -22.6875 L 19.640625 -17.9375 C 19.492188 -18.0625 19.28125 -18.207031 19 -18.375 C 18.726562 -18.539062 18.175781 -18.757812 17.34375 -19.03125 C 16.507812 -19.3125 15.671875 -19.453125 14.828125 -19.453125 C 13.472656 -19.453125 12.257812 -19.234375 11.1875 -18.796875 C 10.125 -18.367188 9.28125 -17.796875 8.65625 -17.078125 C 8.03125 -16.367188 7.554688 -15.601562 7.234375 -14.78125 C 6.910156 -13.957031 6.75 -13.117188 6.75 -12.265625 C 6.75 -10.398438 7.445312 -8.726562 8.84375 -7.25 C 10.238281 -5.78125 12.234375 -5.046875 14.828125 -5.046875 Z M 14.828125 -5.046875 "/></g></g></g><g fill="#000000" fill-opacity="1"><g transform="translate(235.648239, 151.068485)"><g><path d="M 0.234375 -19.609375 L 0.234375 -24.5 L 17.46875 -24.5 L 17.46875 -19.609375 L 11.640625 -19.609375 L 11.640625 0 L 6.0625 0 L 6.0625 -19.609375 Z M 0.234375 -19.609375 "/></g></g></g><g fill="#000000" fill-opacity="1"><g transform="translate(255.24305, 151.068485)"><g><path d="M 1.78125 -24.5 L 10.546875 -24.5 C 12.898438 -24.5 14.816406 -23.867188 16.296875 -22.609375 C 17.785156 -21.359375 18.53125 -19.566406 18.53125 -17.234375 C 18.53125 -15.429688 18.078125 -13.921875 17.171875 -12.703125 C 16.273438 -11.484375 15.054688 -10.625 13.515625 -10.125 L 21.953125 0 L 14.859375 0 L 7.359375 -9.6875 L 7.359375 0 L 1.78125 0 Z M 7.359375 -13.640625 L 8.015625 -13.640625 C 8.535156 -13.640625 8.972656 -13.644531 9.328125 -13.65625 C 9.679688 -13.675781 10.085938 -13.742188 10.546875 -13.859375 C 11.003906 -13.984375 11.367188 -14.15625 11.640625 -14.375 C 11.921875 -14.59375 12.160156 -14.910156 12.359375 -15.328125 C 12.554688 -15.742188 12.65625 -16.25 12.65625 -16.84375 C 12.65625 -17.4375 12.554688 -17.941406 12.359375 -18.359375 C 12.160156 -18.773438 11.921875 -19.09375 11.640625 -19.3125 C 11.367188 -19.53125 11.003906 -19.695312 10.546875 -19.8125 C 10.085938 -19.925781 9.679688 -19.992188 9.328125 -20.015625 C 8.972656 -20.035156 8.535156 -20.046875 8.015625 -20.046875 L 7.359375 -20.046875 Z M 7.359375 -13.640625 "/></g></g></g><g fill="#000000" fill-opacity="1"><g transform="translate(278.400369, 151.068485)"><g><path d="M -0.890625 -24.5 L 5.828125 -24.5 L 10.9375 -16.65625 L 16.046875 -24.5 L 22.75 -24.5 L 13.71875 -10.984375 L 13.71875 0 L 8.140625 0 L 8.140625 -10.984375 Z M -0.890625 -24.5 "/></g></g></g><g clip-path="url(#7caedc0e8f)"><path fill="#46a541" d="M 333.480469 112.230469 C 315.09375 112.148438 305.226562 120.859375 304.378906 138.898438 C 304.371094 139.125 304.042969 139.136719 304.011719 138.914062 C 303.191406 133.019531 303.351562 127.648438 304.824219 122.980469 C 309.6875 107.570312 328.238281 105.546875 341.402344 110.425781 C 342.058594 110.667969 342.191406 111.527344 341.644531 111.96875 C 331.378906 120.304688 332.777344 143.050781 307.785156 133.191406 C 311.6875 120.878906 319.691406 113.25 333.480469 112.230469 " fill-opacity="1" fill-rule="evenodd"/></g><path fill="#d1d0e8" d="M 166.527344 116.429688 C 165.300781 114.832031 164.886719 112.679688 165.90625 110.507812 C 168.078125 106.007812 174.664062 106.363281 176.363281 111.113281 C 178.417969 116.871094 170.664062 121.59375 166.527344 116.429688 " fill-opacity="1" fill-rule="nonzero"/><g clip-path="url(#cb56ff6f7a)"><path fill="#d1d0e8" d="M 148.496094 312.089844 C 141.140625 312.089844 135.1875 306.144531 135.1875 298.824219 C 135.1875 287.324219 149.027344 281.171875 157.445312 289.039062 C 166.320312 297.125 160.605469 312.089844 148.496094 312.089844 " fill-opacity="1" fill-rule="nonzero"/></g><path fill="#d1d0e8" d="M 81.589844 75.042969 C 78.195312 75.722656 73.824219 71.484375 75.980469 66.941406 C 78.164062 62.46875 84.722656 62.808594 86.421875 67.558594 C 87.660156 71.265625 84.972656 74.777344 81.589844 75.042969 " fill-opacity="1" fill-rule="nonzero"/><g clip-path="url(#21d30d05a2)"><path fill="#42607a" d="M 81.046875 174.0625 C 83.246094 176.261719 86.582031 177.8125 89.523438 178.152344 L 80.78125 185.324219 Z M 103.714844 138.019531 C 105.648438 154.492188 101.941406 179.964844 86.996094 173.015625 C 72.359375 166.417969 87.292969 148.175781 103.714844 138.019531 Z M 175.640625 174.136719 C 158.804688 177.222656 156.75 185.175781 123.003906 236.289062 C 109.625 256.699219 78.695312 249.351562 70.472656 230.855469 C 63.664062 215.65625 71.976562 205.914062 80.1875 191.347656 C 80.601562 191.007812 97.910156 176.691406 98.339844 176.378906 C 108.351562 170.59375 109.476562 148.691406 107.734375 135.703125 C 129.871094 123.394531 158.019531 117.890625 166.527344 116.429688 C 165.640625 115.277344 165.199219 113.742188 165.375 112.28125 C 156.382812 113.875 129.164062 119.351562 107.007812 131.214844 C 102.546875 105.890625 89.285156 80.207031 85.371094 73.066406 C 84.160156 74.113281 83.203125 74.925781 81.589844 75.042969 C 85.371094 81.949219 98.976562 108.089844 103.09375 133.460938 C 91.5625 140.277344 76.96875 152.410156 76.96875 166.375 L 76.453125 189.339844 C 67.855469 204.585938 58.980469 215.535156 66.585938 232.597656 C 76.140625 254.027344 111.261719 261.910156 126.535156 238.632812 L 158.523438 190.179688 C 173.335938 167.746094 208.886719 177.972656 208.886719 205.308594 C 208.886719 217.277344 208.074219 215.449219 153.871094 286.691406 C 155.183594 287.265625 156.382812 288.046875 157.445312 289.039062 C 211.335938 218.179688 213.136719 219.003906 213.136719 205.308594 C 213.136719 185.574219 195.207031 170.492188 175.640625 174.136719 " fill-opacity="1" fill-rule="nonzero"/></g><g clip-path="url(#e79a0ee63b)"><path fill="#000000" d="M -1190.257812 164.652344 C -1065.257812 163.425781 -940.257812 162.660156 -815.257812 162.347656 L -768.386719 162.175781 L -721.507812 162.066406 L -627.757812 161.859375 L -440.257812 161.703125 L -252.757812 161.867188 L -159.007812 162.074219 L -112.132812 162.183594 L -65.257812 162.359375 C 59.742188 162.792969 184.742188 163.558594 309.742188 164.652344 L 309.742188 165 L -440.257812 165.179688 L -1190.257812 165 Z M -1190.257812 164.652344 " fill-opacity="1" fill-rule="nonzero"/></g><g fill="#000000" fill-opacity="1"><g transform="translate(177.754155, 171.048135)"><g/></g></g><g fill="#000000" fill-opacity="1"><g transform="translate(183.532671, 171.048135)"><g><path d="M 11.265625 -12.074219 C 10.683594 -10.628906 10.070312 -9.207031 9.292969 -7.84375 C 8.875 -7.09375 8.375 -6.257812 7.734375 -5.648438 C 7.148438 -5.089844 6.648438 -4.617188 6.398438 -5.480469 C 6.175781 -6.34375 6.871094 -7.902344 7.121094 -8.679688 C 7.371094 -9.542969 7.707031 -10.40625 7.902344 -11.265625 C 8.066406 -12.019531 7.011719 -12.546875 6.621094 -11.824219 C 6.066406 -10.765625 5.535156 -9.710938 4.980469 -8.679688 C 4.339844 -7.566406 3.449219 -5.480469 2.308594 -4.839844 C 0.917969 -4.0625 1.808594 -7.234375 2.003906 -7.984375 C 2.253906 -9.042969 2.671875 -10.097656 2.867188 -11.183594 C 3.003906 -12.046875 1.695312 -12.40625 1.558594 -11.546875 C 1.28125 -9.933594 -1.613281 -3.5625 1.503906 -3.089844 C 2.921875 -2.867188 4.0625 -4.617188 4.757812 -5.621094 C 4.8125 -5.703125 4.839844 -5.785156 4.894531 -5.84375 C 4.839844 -4.894531 5.0625 -4.089844 5.785156 -3.671875 C 8.984375 -1.835938 11.90625 -9.902344 12.628906 -11.683594 C 12.964844 -12.519531 11.601562 -12.910156 11.265625 -12.074219 Z M 11.265625 -12.074219 "/></g></g></g><g fill="#000000" fill-opacity="1"><g transform="translate(195.91184, 171.048135)"><g><path d="M 8.039062 -8.511719 C 7.09375 -7.34375 6.09375 -6.035156 4.730469 -5.285156 C 3.785156 -4.757812 2.644531 -4.671875 1.917969 -5.675781 C 1.585938 -6.121094 1.53125 -6.621094 1.613281 -7.148438 C 3.5625 -7.289062 6.648438 -8.597656 6.121094 -11.101562 C 5.621094 -13.519531 2.644531 -11.960938 1.726562 -10.765625 C 0.109375 -8.679688 -0.835938 -4.867188 2.335938 -3.671875 C 5.0625 -2.613281 7.566406 -5.648438 9.011719 -7.539062 C 9.542969 -8.207031 8.625 -9.207031 8.039062 -8.511719 Z M 4.785156 -10.820312 C 5.035156 -10.460938 4.421875 -9.710938 4.199219 -9.488281 C 3.617188 -8.875 2.835938 -8.597656 2.03125 -8.457031 C 2.03125 -8.511719 2.058594 -8.570312 2.085938 -8.625 C 2.308594 -9.125 4.089844 -11.960938 4.785156 -10.820312 Z M 4.785156 -10.820312 "/></g></g></g><g fill="#000000" fill-opacity="1"><g transform="translate(203.728793, 171.048135)"><g/></g></g><g fill="#000000" fill-opacity="1"><g transform="translate(209.515014, 171.048135)"><g><path d="M 3.421875 -11.601562 C 1.808594 -10.628906 0.585938 -9.042969 0.25 -7.175781 C -0.140625 -5.148438 1.085938 -3.617188 3.199219 -3.589844 C 5.675781 -3.5625 7.902344 -5.535156 9.488281 -7.234375 C 10.097656 -7.902344 9.097656 -8.902344 8.484375 -8.234375 C 7.539062 -7.207031 6.511719 -6.257812 5.257812 -5.589844 C 3.921875 -4.894531 1.308594 -4.535156 1.613281 -6.816406 C 1.726562 -7.761719 2.226562 -8.707031 2.894531 -9.402344 C 3.421875 -9.960938 5.089844 -11.628906 5.425781 -10.292969 C 5.5625 -9.710938 6.59375 -9.820312 6.511719 -10.460938 C 6.289062 -12.269531 4.839844 -12.492188 3.421875 -11.601562 Z M 3.421875 -11.601562 "/></g></g></g><g fill="#000000" fill-opacity="1"><g transform="translate(217.971789, 171.048135)"><g><path d="M 10.792969 -7.484375 C 10.265625 -6.566406 9.097656 -4.671875 7.929688 -4.953125 C 6.203125 -5.339844 7.039062 -8.039062 7.789062 -9.847656 C 8.039062 -10.375 8.261719 -10.820312 8.402344 -11.15625 C 8.792969 -11.960938 7.59375 -12.6875 7.207031 -11.851562 C 7.09375 -11.683594 6.984375 -11.460938 6.871094 -11.210938 C 3.367188 -13.160156 -2.421875 -7.484375 0.777344 -4.421875 C 2.503906 -2.808594 4.171875 -4.007812 5.535156 -5.871094 C 5.621094 -4.867188 6.066406 -3.976562 7.066406 -3.476562 C 9.097656 -2.449219 11.183594 -5.3125 12.019531 -6.789062 C 12.464844 -7.566406 11.238281 -8.289062 10.792969 -7.484375 Z M 3.253906 -5.507812 C 1.308594 -4.171875 1.113281 -6.953125 1.917969 -8.179688 C 2.835938 -9.570312 4.730469 -10.90625 6.34375 -9.988281 C 5.5625 -8.261719 4.644531 -6.453125 3.253906 -5.507812 Z M 3.253906 -5.507812 "/></g></g></g><g fill="#000000" fill-opacity="1"><g transform="translate(228.765305, 171.048135)"><g><path d="M 6.871094 -11.65625 C 5.035156 -12.183594 3.589844 -11.574219 2.390625 -10.460938 C 2.503906 -10.90625 2.644531 -11.324219 2.78125 -11.769531 C 3.03125 -12.601562 1.726562 -12.964844 1.472656 -12.128906 C 0.777344 -9.902344 0.140625 -7.679688 -0.667969 -5.480469 C -0.890625 -4.980469 -1.085938 -4.507812 -1.25 -4.0625 C -1.558594 -3.199219 -0.222656 -2.867188 0.109375 -3.699219 C 0.332031 -4.199219 0.527344 -4.730469 0.722656 -5.230469 C 1.78125 -7.84375 3.589844 -11.128906 6.480469 -10.292969 C 7.34375 -10.042969 7.734375 -11.40625 6.871094 -11.65625 Z M 6.871094 -11.65625 "/></g></g></g><g fill="#000000" fill-opacity="1"><g transform="translate(236.331901, 171.048135)"><g><path d="M 8.039062 -8.511719 C 7.09375 -7.34375 6.09375 -6.035156 4.730469 -5.285156 C 3.785156 -4.757812 2.644531 -4.671875 1.917969 -5.675781 C 1.585938 -6.121094 1.53125 -6.621094 1.613281 -7.148438 C 3.5625 -7.289062 6.648438 -8.597656 6.121094 -11.101562 C 5.621094 -13.519531 2.644531 -11.960938 1.726562 -10.765625 C 0.109375 -8.679688 -0.835938 -4.867188 2.335938 -3.671875 C 5.0625 -2.613281 7.566406 -5.648438 9.011719 -7.539062 C 9.542969 -8.207031 8.625 -9.207031 8.039062 -8.511719 Z M 4.785156 -10.820312 C 5.035156 -10.460938 4.421875 -9.710938 4.199219 -9.488281 C 3.617188 -8.875 2.835938 -8.597656 2.03125 -8.457031 C 2.03125 -8.511719 2.058594 -8.570312 2.085938 -8.625 C 2.308594 -9.125 4.089844 -11.960938 4.785156 -10.820312 Z M 4.785156 -10.820312 "/></g></g></g><g fill="#000000" fill-opacity="1"><g transform="translate(244.133011, 171.048135)"><g/></g></g><g clip-path="url(#fdf9997dac)"><path fill="#000000" d="M -1320.25 166.527344 C -1195.25 165.300781 -1070.25 164.535156 -945.25 164.222656 L -898.375 164.050781 L -851.5 163.941406 L -757.75 163.734375 L -570.25 163.578125 L -382.75 163.742188 L -289 163.949219 L -242.125 164.058594 L -195.25 164.234375 C -70.25 164.667969 54.75 165.433594 179.75 166.527344 L 179.75 166.875 L -570.25 167.054688 L -1320.25 166.875 Z M -1320.25 166.527344 " fill-opacity="1" fill-rule="nonzero"/></g></svg>