<svg xmlns="http://www.w3.org/2000/svg" xmlns:xlink="http://www.w3.org/1999/xlink" width="500" zoomAndPan="magnify" viewBox="0 0 375 374.999991" height="500" preserveAspectRatio="xMidYMid meet" version="1.0"><defs><g/><clipPath id="c15bf00f46"><path d="M 127.785156 120.753906 L 139 120.753906 L 139 135.003906 L 127.785156 135.003906 Z M 127.785156 120.753906 " clip-rule="nonzero"/></clipPath><clipPath id="722029a26c"><path d="M 135 120.753906 L 142.785156 120.753906 L 142.785156 133 L 135 133 Z M 135 120.753906 " clip-rule="nonzero"/></clipPath><clipPath id="d9809d6588"><path d="M 68 103.617188 L 148.058594 103.617188 L 148.058594 195.117188 L 68 195.117188 Z M 68 103.617188 " clip-rule="nonzero"/></clipPath><clipPath id="9ad7d39ab2"><path d="M 108.035156 173.714844 L 163.28125 173.714844 L 163.28125 177.464844 L 108.035156 177.464844 Z M 108.035156 173.714844 " clip-rule="nonzero"/></clipPath><clipPath id="50e8127457"><path d="M 273.933594 171.839844 L 329.179688 171.839844 L 329.179688 175.589844 L 273.933594 175.589844 Z M 273.933594 171.839844 " clip-rule="nonzero"/></clipPath><clipPath id="a41df55126"><path d="M 298.183594 119 L 337 119 L 337 151 L 298.183594 151 Z M 298.183594 119 " clip-rule="nonzero"/></clipPath></defs><rect x="-37.5" width="450" fill="#ffffff" y="-37.499999" height="449.999989" fill-opacity="1"/><rect x="-37.5" width="450" fill="#ffffff" y="-37.499999" height="449.999989" fill-opacity="1"/><g clip-path="url(#c15bf00f46)"><path fill="#46a541" d="M 135.636719 133.488281 L 130.84375 128 C 130.84375 128 133.507812 130.398438 136.261719 132.8125 C 136.976562 133.4375 138.320312 134.410156 136.957031 134.988281 C 139.480469 135.15625 139.273438 134.097656 138.023438 132.980469 C 136.714844 131.804688 135.046875 130.460938 133.191406 128.734375 C 127.53125 123.484375 129.910156 120.753906 129.910156 120.753906 C 127.421875 123.3125 127.042969 127.363281 129.195312 130.367188 C 130.730469 132.507812 133.1875 133.601562 135.636719 133.488281 Z M 135.636719 133.488281 " fill-opacity="1" fill-rule="evenodd"/></g><g clip-path="url(#722029a26c)"><path fill="#000000" d="M 136.78125 131.375 L 139.730469 128 C 139.730469 128 138.199219 129.371094 136.351562 131.011719 L 136.066406 130.765625 C 135.90625 130.628906 135.746094 130.488281 135.585938 130.351562 C 136.160156 129.847656 136.761719 129.3125 137.382812 128.734375 C 143.039062 123.484375 140.664062 120.753906 140.664062 120.753906 C 143.152344 123.3125 143.53125 127.363281 141.378906 130.367188 C 140.589844 131.464844 139.566406 132.285156 138.421875 132.808594 L 138.285156 132.6875 C 137.789062 132.242188 137.285156 131.808594 136.78125 131.375 Z M 136.78125 131.375 " fill-opacity="1" fill-rule="evenodd"/></g><path fill="#000000" d="M 135.285156 122.472656 C 136.554688 122.472656 137.585938 123.503906 137.585938 124.773438 C 137.585938 126.046875 136.554688 127.078125 135.285156 127.078125 C 134.015625 127.078125 132.988281 126.046875 132.988281 124.773438 C 132.988281 123.503906 134.015625 122.472656 135.285156 122.472656 Z M 135.285156 122.472656 " fill-opacity="1" fill-rule="evenodd"/><g clip-path="url(#d9809d6588)"><path fill="#1a4d2e" d="M 135.46875 113.433594 C 128.527344 113.433594 122.878906 119.109375 122.878906 126.085938 C 122.878906 132.570312 127.761719 137.929688 134.023438 138.652344 L 134.023438 173.304688 C 134.023438 183.726562 125.585938 192.203125 115.214844 192.203125 C 104.84375 192.203125 96.410156 183.726562 96.410156 173.304688 L 96.410156 161.855469 C 102.75 159.28125 108.003906 155.300781 112.035156 150.011719 C 115.402344 145.59375 117.917969 140.273438 119.511719 134.1875 C 122.109375 124.269531 121.402344 115.71875 121.3125 114.777344 C 121.261719 109.785156 116.242188 107.8125 116.027344 107.730469 C 115.863281 107.667969 115.6875 107.636719 115.511719 107.636719 L 108.792969 107.636719 C 108.160156 105.320312 106.046875 103.613281 103.542969 103.613281 C 100.535156 103.613281 98.09375 106.070312 98.09375 109.085938 C 98.09375 112.105469 100.535156 114.5625 103.542969 114.5625 C 106.046875 114.5625 108.160156 112.855469 108.792969 110.539062 L 115.214844 110.539062 C 115.96875 110.890625 118.421875 112.242188 118.421875 114.851562 C 118.421875 114.902344 118.425781 114.953125 118.429688 115 C 118.441406 115.085938 119.28125 123.660156 116.714844 133.449219 C 113.363281 146.25 106.046875 154.949219 94.964844 159.308594 C 83.90625 154.960938 76.597656 146.289062 73.234375 133.535156 C 70.648438 123.738281 71.488281 115.085938 71.496094 115 C 71.5 114.953125 71.503906 114.902344 71.503906 114.851562 C 71.503906 112.238281 73.953125 110.890625 74.710938 110.539062 L 81.1875 110.539062 C 81.824219 112.855469 83.9375 114.5625 86.441406 114.5625 C 89.445312 114.5625 91.890625 112.105469 91.890625 109.085938 C 91.890625 106.070312 89.445312 103.613281 86.441406 103.613281 C 83.9375 103.613281 81.824219 105.320312 81.1875 107.636719 L 74.414062 107.636719 C 74.238281 107.636719 74.066406 107.667969 73.902344 107.730469 C 73.6875 107.8125 68.664062 109.785156 68.613281 114.777344 C 68.523438 115.71875 67.816406 124.269531 70.417969 134.1875 C 72.007812 140.273438 74.523438 145.59375 77.890625 150.011719 C 81.921875 155.300781 87.175781 159.28125 93.519531 161.855469 L 93.519531 173.304688 C 93.519531 179.128906 95.777344 184.601562 99.875 188.71875 C 103.972656 192.839844 109.421875 195.105469 115.214844 195.105469 C 121.011719 195.105469 126.460938 192.839844 130.558594 188.71875 C 134.65625 184.601562 136.914062 179.128906 136.914062 173.304688 L 136.914062 138.652344 C 143.175781 137.929688 148.058594 132.570312 148.058594 126.085938 C 148.058594 119.109375 142.410156 113.433594 135.46875 113.433594 Z M 103.542969 111.660156 C 102.128906 111.660156 100.980469 110.503906 100.980469 109.085938 C 100.980469 107.667969 102.128906 106.515625 103.542969 106.515625 C 104.953125 106.515625 106.101562 107.667969 106.101562 109.085938 C 106.101562 110.503906 104.953125 111.660156 103.542969 111.660156 Z M 86.441406 106.515625 C 87.851562 106.515625 89 107.667969 89 109.085938 C 89 110.503906 87.851562 111.660156 86.441406 111.660156 C 85.03125 111.660156 83.882812 110.503906 83.882812 109.085938 C 83.882812 107.667969 85.03125 106.515625 86.441406 106.515625 Z M 135.46875 135.832031 C 130.121094 135.832031 125.769531 131.457031 125.769531 126.085938 C 125.769531 120.710938 130.121094 116.335938 135.46875 116.335938 C 140.816406 116.335938 145.167969 120.710938 145.167969 126.085938 C 145.167969 131.457031 140.816406 135.832031 135.46875 135.832031 Z M 135.46875 135.832031 " fill-opacity="1" fill-rule="nonzero"/></g><g fill="#000000" fill-opacity="1"><g transform="translate(171.677453, 180.844988)"><g/></g></g><g fill="#000000" fill-opacity="1"><g transform="translate(176.599743, 180.844988)"><g><path d="M 9.597656 -10.285156 C 9.101562 -9.050781 8.578125 -7.84375 7.914062 -6.683594 C 7.558594 -6.042969 7.132812 -5.332031 6.589844 -4.8125 C 6.089844 -4.335938 5.664062 -3.933594 5.449219 -4.667969 C 5.261719 -5.402344 5.851562 -6.730469 6.066406 -7.394531 C 6.28125 -8.128906 6.5625 -8.863281 6.730469 -9.597656 C 6.871094 -10.238281 5.972656 -10.6875 5.640625 -10.070312 C 5.167969 -9.171875 4.714844 -8.269531 4.242188 -7.394531 C 3.695312 -6.445312 2.9375 -4.667969 1.96875 -4.125 C 0.78125 -3.460938 1.539062 -6.160156 1.707031 -6.800781 C 1.917969 -7.703125 2.273438 -8.601562 2.441406 -9.527344 C 2.558594 -10.261719 1.445312 -10.570312 1.328125 -9.835938 C 1.089844 -8.460938 -1.375 -3.035156 1.28125 -2.628906 C 2.488281 -2.441406 3.460938 -3.933594 4.050781 -4.785156 C 4.101562 -4.859375 4.125 -4.929688 4.171875 -4.976562 C 4.125 -4.171875 4.3125 -3.484375 4.929688 -3.128906 C 7.65625 -1.5625 10.144531 -8.4375 10.757812 -9.953125 C 11.042969 -10.664062 9.882812 -10.996094 9.597656 -10.285156 Z M 9.597656 -10.285156 "/></g></g></g><g fill="#000000" fill-opacity="1"><g transform="translate(187.144639, 180.844988)"><g><path d="M 6.847656 -7.25 C 6.042969 -6.257812 5.191406 -5.140625 4.027344 -4.503906 C 3.222656 -4.050781 2.25 -3.980469 1.636719 -4.835938 C 1.351562 -5.214844 1.304688 -5.640625 1.375 -6.089844 C 3.035156 -6.207031 5.664062 -7.324219 5.214844 -9.457031 C 4.785156 -11.515625 2.25 -10.191406 1.46875 -9.171875 C 0.09375 -7.394531 -0.710938 -4.148438 1.992188 -3.128906 C 4.3125 -2.226562 6.445312 -4.8125 7.679688 -6.421875 C 8.128906 -6.992188 7.347656 -7.84375 6.847656 -7.25 Z M 4.074219 -9.21875 C 4.289062 -8.910156 3.769531 -8.269531 3.578125 -8.082031 C 3.082031 -7.558594 2.417969 -7.324219 1.730469 -7.203125 C 1.730469 -7.25 1.753906 -7.300781 1.777344 -7.347656 C 1.96875 -7.773438 3.484375 -10.191406 4.074219 -9.21875 Z M 4.074219 -9.21875 "/></g></g></g><g fill="#000000" fill-opacity="1"><g transform="translate(193.803322, 180.844988)"><g/></g></g><g fill="#000000" fill-opacity="1"><g transform="translate(198.732175, 180.844988)"><g><path d="M 8.4375 -6.28125 C 8.105469 -5.734375 6.515625 -3.71875 5.59375 -4.074219 C 4.714844 -4.457031 5.59375 -6.5625 6.28125 -7.960938 C 6.375 -8.128906 6.445312 -8.292969 6.539062 -8.460938 C 6.707031 -8.769531 6.847656 -9.003906 6.917969 -9.125 C 7.300781 -9.789062 6.28125 -10.378906 5.878906 -9.714844 C 5.851562 -9.667969 5.804688 -9.621094 5.78125 -9.550781 C 5.734375 -9.503906 5.710938 -9.433594 5.664062 -9.359375 C 5.425781 -8.910156 5.09375 -8.316406 4.785156 -7.65625 C 4.101562 -6.304688 3.316406 -4.953125 2.132812 -4.265625 C 0.449219 -3.292969 0.78125 -5.285156 1.136719 -6.234375 C 1.539062 -7.226562 2.109375 -8.152344 2.535156 -9.125 C 2.84375 -9.8125 1.824219 -10.425781 1.515625 -9.714844 C 0.851562 -8.246094 -2.273438 -3.414062 1.019531 -2.84375 C 2.203125 -2.652344 3.199219 -3.292969 4.027344 -4.265625 C 4.125 -3.746094 4.382812 -3.316406 4.882812 -3.058594 C 6.589844 -2.15625 8.695312 -4.429688 9.480469 -5.6875 C 9.859375 -6.351562 8.839844 -6.945312 8.4375 -6.28125 Z M 8.4375 -6.28125 "/></g></g></g><g fill="#000000" fill-opacity="1"><g transform="translate(207.168095, 180.844988)"><g><path d="M 4.359375 -10.332031 C 3.460938 -10.472656 2.703125 -10.167969 2.0625 -9.574219 C 2.085938 -9.882812 2.085938 -10.167969 2.015625 -10.425781 C 1.824219 -11.160156 0.78125 -10.855469 0.925781 -10.144531 C 1.089844 -9.242188 0.472656 -7.796875 0.214844 -6.945312 C 0.0703125 -6.375 -0.09375 -5.804688 -0.285156 -5.238281 C -0.425781 -4.835938 -0.546875 -4.429688 -0.640625 -4.101562 C -0.734375 -3.863281 -0.804688 -3.625 -0.875 -3.414062 C -1.136719 -2.679688 0.0234375 -2.371094 0.285156 -3.105469 C 0.546875 -3.910156 0.804688 -4.714844 1.066406 -5.546875 C 1.5625 -6.917969 2.226562 -8.292969 3.363281 -8.933594 C 4.667969 -9.644531 4.621094 -8.390625 4.480469 -7.464844 C 4.242188 -5.996094 3.648438 -4.574219 3.058594 -3.222656 C 2.773438 -2.535156 3.792969 -1.917969 4.101562 -2.628906 C 4.667969 -3.980469 7.488281 -9.835938 4.359375 -10.332031 Z M 4.359375 -10.332031 "/></g></g></g><g fill="#000000" fill-opacity="1"><g transform="translate(213.850474, 180.844988)"><g><path d="M 10.09375 -17.015625 C 10.355469 -17.726562 9.21875 -18.035156 8.933594 -17.324219 C 7.984375 -14.691406 6.917969 -12.0625 5.996094 -9.382812 C 3.695312 -11.089844 1.042969 -9.242188 0.214844 -6.824219 C -0.378906 -5.117188 0.355469 -2.347656 2.703125 -2.960938 C 3.363281 -3.128906 3.957031 -3.554688 4.480469 -4.148438 C 4.265625 -3.199219 4.101562 -2.226562 3.980469 -1.28125 C 3.886719 -0.496094 5.09375 -0.519531 5.191406 -1.28125 C 5.496094 -3.910156 6.234375 -6.445312 7.109375 -8.957031 C 8.222656 -11.589844 9.101562 -14.3125 10.09375 -17.015625 Z M 1.28125 -4.644531 C 0.734375 -5.617188 1.492188 -7.0625 2.109375 -7.796875 C 3.035156 -8.910156 4.242188 -9.265625 5.496094 -8.414062 C 5.523438 -8.390625 5.523438 -8.390625 5.546875 -8.390625 C 5.238281 -7.703125 4.882812 -7.039062 4.503906 -6.398438 C 4.003906 -5.570312 2.296875 -2.890625 1.28125 -4.644531 Z M 1.28125 -4.644531 "/></g></g></g><g fill="#000000" fill-opacity="1"><g transform="translate(221.575493, 180.844988)"><g><path d="M 6.847656 -7.25 C 6.042969 -6.257812 5.191406 -5.140625 4.027344 -4.503906 C 3.222656 -4.050781 2.25 -3.980469 1.636719 -4.835938 C 1.351562 -5.214844 1.304688 -5.640625 1.375 -6.089844 C 3.035156 -6.207031 5.664062 -7.324219 5.214844 -9.457031 C 4.785156 -11.515625 2.25 -10.191406 1.46875 -9.171875 C 0.09375 -7.394531 -0.710938 -4.148438 1.992188 -3.128906 C 4.3125 -2.226562 6.445312 -4.8125 7.679688 -6.421875 C 8.128906 -6.992188 7.347656 -7.84375 6.847656 -7.25 Z M 4.074219 -9.21875 C 4.289062 -8.910156 3.769531 -8.269531 3.578125 -8.082031 C 3.082031 -7.558594 2.417969 -7.324219 1.730469 -7.203125 C 1.730469 -7.25 1.753906 -7.300781 1.777344 -7.347656 C 1.96875 -7.773438 3.484375 -10.191406 4.074219 -9.21875 Z M 4.074219 -9.21875 "/></g></g></g><g fill="#000000" fill-opacity="1"><g transform="translate(228.234176, 180.844988)"><g><path d="M 5.851562 -9.929688 C 4.289062 -10.378906 3.058594 -9.859375 2.039062 -8.910156 C 2.132812 -9.289062 2.25 -9.644531 2.371094 -10.023438 C 2.582031 -10.734375 1.46875 -11.042969 1.257812 -10.332031 C 0.664062 -8.4375 0.117188 -6.539062 -0.570312 -4.667969 C -0.757812 -4.242188 -0.925781 -3.839844 -1.066406 -3.460938 C -1.328125 -2.726562 -0.191406 -2.441406 0.09375 -3.152344 C 0.285156 -3.578125 0.449219 -4.027344 0.617188 -4.457031 C 1.515625 -6.683594 3.058594 -9.480469 5.523438 -8.769531 C 6.257812 -8.554688 6.589844 -9.714844 5.851562 -9.929688 Z M 5.851562 -9.929688 "/></g></g></g><g fill="#000000" fill-opacity="1"><g transform="translate(234.679598, 180.844988)"><g><path d="M 6.613281 -5.902344 C 5.070312 -5.617188 3.339844 -5.261719 1.824219 -4.574219 C 1.800781 -4.644531 1.800781 -4.714844 1.800781 -4.785156 C 1.707031 -5.238281 1.613281 -5.710938 1.5625 -6.160156 C 1.515625 -6.515625 1.46875 -6.894531 1.515625 -7.25 C 1.5625 -7.488281 1.636719 -7.75 1.707031 -7.984375 C 2.441406 -8.769531 3.007812 -8.695312 3.4375 -7.773438 C 3.152344 -7.085938 4.265625 -6.777344 4.550781 -7.464844 C 5.308594 -9.3125 2.914062 -10.144531 1.515625 -9.382812 C -0.214844 -8.460938 0.332031 -6.160156 0.617188 -4.597656 C 0.640625 -4.382812 0.6875 -4.195312 0.710938 -4.003906 C 0.0703125 -3.601562 -0.496094 -3.128906 -0.972656 -2.535156 C -1.871094 -1.398438 -2.867188 1.753906 -0.570312 1.941406 C 1.398438 2.109375 2.015625 -0.09375 2.0625 -1.613281 C 2.085938 -2.203125 2.0625 -2.820312 1.992188 -3.414062 C 3.648438 -4.171875 5.710938 -4.527344 6.945312 -4.738281 C 7.679688 -4.882812 7.371094 -6.042969 6.613281 -5.902344 Z M 0.875 -1.613281 C 0.851562 -1.089844 0.804688 -0.496094 0.570312 -0.0234375 C 0.0703125 0.902344 -0.804688 0.734375 -0.734375 -0.332031 C -0.6875 -1.375 -0.046875 -2.179688 0.828125 -2.773438 C 0.875 -2.394531 0.875 -2.015625 0.875 -1.613281 Z M 0.875 -1.613281 "/></g></g></g><g fill="#000000" fill-opacity="1"><g transform="translate(241.243499, 180.844988)"><g><path d="M 6.730469 -7.0625 C 5.851562 -5.925781 5.167969 -4.621094 4.148438 -3.601562 C 3.671875 -3.152344 2.628906 -2.179688 1.894531 -2.417969 C 0.617188 -2.773438 1.257812 -5.332031 1.421875 -6.160156 C 1.824219 -8.082031 2.394531 -10 3.007812 -11.894531 C 4.265625 -11.894531 5.523438 -11.871094 6.753906 -11.871094 C 7.535156 -11.871094 7.535156 -13.058594 6.753906 -13.082031 C 5.640625 -13.082031 4.527344 -13.082031 3.414062 -13.105469 C 3.933594 -14.644531 4.480469 -16.183594 5 -17.703125 C 5.238281 -18.4375 4.074219 -18.746094 3.839844 -18.011719 C 3.292969 -16.375 2.773438 -14.738281 2.25 -13.105469 C 1.660156 -13.105469 1.089844 -13.105469 0.519531 -13.105469 C -0.261719 -13.105469 -0.261719 -11.894531 0.519531 -11.894531 C 0.972656 -11.894531 1.421875 -11.894531 1.871094 -11.894531 C 1.539062 -10.855469 1.207031 -9.835938 0.902344 -8.792969 C 0.355469 -7.015625 -0.828125 -3.695312 0.238281 -1.941406 C 1.019531 -0.617188 3.082031 -1.28125 4.101562 -1.96875 C 5.710938 -3.058594 6.636719 -4.929688 7.773438 -6.46875 C 8.222656 -7.085938 7.179688 -7.679688 6.730469 -7.0625 Z M 6.730469 -7.0625 "/></g></g></g><g fill="#000000" fill-opacity="1"><g transform="translate(247.665225, 180.844988)"><g><path d="M 9.195312 -6.375 C 8.746094 -5.59375 7.75 -3.980469 6.753906 -4.21875 C 5.285156 -4.550781 5.996094 -6.847656 6.636719 -8.390625 C 6.847656 -8.839844 7.039062 -9.21875 7.15625 -9.503906 C 7.488281 -10.191406 6.46875 -10.804688 6.136719 -10.09375 C 6.042969 -9.953125 5.949219 -9.761719 5.851562 -9.550781 C 2.867188 -11.210938 -2.0625 -6.375 0.664062 -3.769531 C 2.132812 -2.394531 3.554688 -3.414062 4.714844 -5 C 4.785156 -4.148438 5.167969 -3.390625 6.019531 -2.960938 C 7.75 -2.085938 9.527344 -4.527344 10.238281 -5.78125 C 10.617188 -6.445312 9.574219 -7.0625 9.195312 -6.375 Z M 2.773438 -4.691406 C 1.113281 -3.554688 0.949219 -5.925781 1.636719 -6.96875 C 2.417969 -8.152344 4.027344 -9.289062 5.402344 -8.507812 C 4.738281 -7.039062 3.957031 -5.496094 2.773438 -4.691406 Z M 2.773438 -4.691406 "/></g></g></g><g fill="#000000" fill-opacity="1"><g transform="translate(256.859422, 180.844988)"><g><path d="M 4.359375 -10.332031 C 3.460938 -10.472656 2.703125 -10.167969 2.0625 -9.574219 C 2.085938 -9.882812 2.085938 -10.167969 2.015625 -10.425781 C 1.824219 -11.160156 0.78125 -10.855469 0.925781 -10.144531 C 1.089844 -9.242188 0.472656 -7.796875 0.214844 -6.945312 C 0.0703125 -6.375 -0.09375 -5.804688 -0.285156 -5.238281 C -0.425781 -4.835938 -0.546875 -4.429688 -0.640625 -4.101562 C -0.734375 -3.863281 -0.804688 -3.625 -0.875 -3.414062 C -1.136719 -2.679688 0.0234375 -2.371094 0.285156 -3.105469 C 0.546875 -3.910156 0.804688 -4.714844 1.066406 -5.546875 C 1.5625 -6.917969 2.226562 -8.292969 3.363281 -8.933594 C 4.667969 -9.644531 4.621094 -8.390625 4.480469 -7.464844 C 4.242188 -5.996094 3.648438 -4.574219 3.058594 -3.222656 C 2.773438 -2.535156 3.792969 -1.917969 4.101562 -2.628906 C 4.667969 -3.980469 7.488281 -9.835938 4.359375 -10.332031 Z M 4.359375 -10.332031 "/></g></g></g><g fill="#000000" fill-opacity="1"><g transform="translate(263.541801, 180.844988)"><g><path d="M 10.09375 -17.015625 C 10.355469 -17.726562 9.21875 -18.035156 8.933594 -17.324219 C 7.984375 -14.691406 6.917969 -12.0625 5.996094 -9.382812 C 3.695312 -11.089844 1.042969 -9.242188 0.214844 -6.824219 C -0.378906 -5.117188 0.355469 -2.347656 2.703125 -2.960938 C 3.363281 -3.128906 3.957031 -3.554688 4.480469 -4.148438 C 4.265625 -3.199219 4.101562 -2.226562 3.980469 -1.28125 C 3.886719 -0.496094 5.09375 -0.519531 5.191406 -1.28125 C 5.496094 -3.910156 6.234375 -6.445312 7.109375 -8.957031 C 8.222656 -11.589844 9.101562 -14.3125 10.09375 -17.015625 Z M 1.28125 -4.644531 C 0.734375 -5.617188 1.492188 -7.0625 2.109375 -7.796875 C 3.035156 -8.910156 4.242188 -9.265625 5.496094 -8.414062 C 5.523438 -8.390625 5.523438 -8.390625 5.546875 -8.390625 C 5.238281 -7.703125 4.882812 -7.039062 4.503906 -6.398438 C 4.003906 -5.570312 2.296875 -2.890625 1.28125 -4.644531 Z M 1.28125 -4.644531 "/></g></g></g><g fill="#000000" fill-opacity="1"><g transform="translate(271.259163, 180.844988)"><g/></g></g><g clip-path="url(#9ad7d39ab2)"><path fill="#000000" d="M -1336.71875 176.804688 C -1211.71875 175.578125 -1086.71875 174.808594 -961.71875 174.496094 L -914.84375 174.324219 L -867.96875 174.214844 L -774.21875 174.007812 L -586.71875 173.851562 L -399.21875 174.015625 L -305.46875 174.222656 L -258.59375 174.335938 L -211.71875 174.507812 C -86.71875 174.945312 38.28125 175.710938 163.28125 176.804688 L 163.28125 177.152344 L -586.71875 177.328125 L -1336.71875 177.152344 Z M -1336.71875 176.804688 " fill-opacity="1" fill-rule="nonzero"/></g><g clip-path="url(#50e8127457)"><path fill="#000000" d="M -1170.820312 174.929688 C -1045.820312 173.703125 -920.820312 172.933594 -795.820312 172.621094 L -748.945312 172.449219 L -702.066406 172.339844 L -608.320312 172.132812 L -420.820312 171.976562 L -233.320312 172.140625 L -139.566406 172.347656 L -92.695312 172.460938 L -45.820312 172.632812 C 79.179688 173.070312 204.179688 173.835938 329.179688 174.929688 L 329.179688 175.277344 L -420.820312 175.453125 L -1170.820312 175.277344 Z M -1170.820312 174.929688 " fill-opacity="1" fill-rule="nonzero"/></g><g fill="#000000" fill-opacity="1"><g transform="translate(157.031917, 148.672323)"><g><path d="M 23.414062 -14.515625 L 21.8125 -15.4375 L 21.8125 -25.820312 C 21.8125 -26.984375 21.972656 -27.945312 20.890625 -27.984375 C 19.644531 -28.027344 18.121094 -28.027344 16.316406 -27.984375 C 15.117188 -27.984375 15.234375 -27.144531 14.914062 -25.339844 C 14.753906 -24.617188 14.675781 -24.054688 14.59375 -23.617188 C 14.3125 -22.332031 13.992188 -20.566406 13.59375 -18.441406 L 12.628906 -13.230469 C 12.628906 -13.070312 12.589844 -12.992188 12.550781 -12.910156 C 12.269531 -12.269531 11.707031 -12.347656 11.546875 -12.832031 C 11.386719 -13.3125 11.265625 -13.671875 11.226562 -13.871094 L 9.140625 -24.417969 L 8.582031 -27.183594 C 8.460938 -27.703125 8.140625 -27.984375 7.699219 -27.984375 L 2.804688 -27.984375 C 1.804688 -27.945312 1.925781 -26.941406 1.925781 -25.78125 L 1.925781 -15.4375 L 0.320312 -14.515625 C 0.121094 -14.394531 0 -14.191406 0 -13.953125 C 0 -13.671875 0.121094 -13.511719 0.320312 -13.390625 L 1.925781 -12.46875 L 1.925781 -2.246094 C 1.925781 -0.921875 1.804688 -0.0820312 2.765625 0.0390625 C 3.769531 0.121094 4.769531 0.121094 5.734375 0.0390625 C 6.734375 -0.121094 6.65625 -1.082031 6.65625 -2.207031 L 6.65625 -9.019531 C 6.65625 -9.703125 6.734375 -10.183594 6.855469 -10.425781 C 6.894531 -10.585938 7.296875 -10.746094 7.457031 -10.425781 C 7.65625 -9.984375 7.777344 -9.664062 7.859375 -9.421875 C 8.097656 -8.378906 8.460938 -6.9375 8.859375 -5.09375 C 9.019531 -4.53125 9.621094 -2.003906 9.863281 -0.960938 C 10.023438 -0.199219 10.265625 0 11.066406 0.0390625 C 12.1875 0.121094 13.429688 0.0820312 13.753906 -0.199219 C 13.914062 -0.359375 14.074219 -0.679688 14.191406 -1.121094 C 14.355469 -1.84375 14.59375 -2.847656 14.875 -4.210938 L 15.71875 -8.378906 C 15.835938 -8.980469 15.996094 -9.382812 16.15625 -9.582031 C 16.238281 -9.664062 16.316406 -9.703125 16.4375 -9.703125 C 16.558594 -9.703125 16.640625 -9.664062 16.679688 -9.542969 C 16.917969 -8.941406 17.078125 -8.179688 17.078125 -7.21875 L 17.078125 -2.003906 C 17.078125 -1.003906 17 -0.0820312 17.800781 0 C 18.882812 0.121094 19.925781 0.121094 20.96875 0 C 21.890625 -0.121094 21.8125 -1.164062 21.8125 -2.285156 L 21.8125 -12.46875 L 23.414062 -13.390625 C 23.617188 -13.511719 23.734375 -13.671875 23.734375 -13.953125 C 23.734375 -14.191406 23.617188 -14.394531 23.414062 -14.515625 Z M 23.414062 -14.515625 "/></g></g></g><g fill="#000000" fill-opacity="1"><g transform="translate(182.210985, 148.672323)"><g><path d="M 14.515625 -3.890625 C 14.394531 -4.8125 13.59375 -4.691406 12.390625 -4.730469 L 8.460938 -4.730469 C 7.136719 -4.769531 6.777344 -5.171875 6.695312 -6.457031 C 6.65625 -7.699219 6.65625 -8.78125 6.734375 -9.742188 C 6.816406 -11.46875 7.21875 -11.667969 8.742188 -11.667969 C 9.902344 -11.667969 10.824219 -11.667969 11.425781 -11.707031 C 11.988281 -11.746094 12.308594 -12.027344 12.308594 -12.589844 C 12.390625 -13.429688 12.390625 -14.273438 12.347656 -15.117188 C 12.308594 -16.078125 12.066406 -16.359375 11.105469 -16.359375 C 10.824219 -16.398438 10.34375 -16.398438 9.703125 -16.398438 C 8.460938 -16.398438 7.578125 -16.359375 7.097656 -16.800781 C 6.894531 -17.039062 6.734375 -17.441406 6.734375 -17.960938 C 6.65625 -19.246094 6.65625 -20.566406 6.695312 -21.929688 C 6.777344 -23.175781 7.136719 -23.574219 8.460938 -23.617188 L 12.429688 -23.617188 C 13.59375 -23.617188 14.433594 -23.535156 14.515625 -24.496094 C 14.59375 -25.417969 14.632812 -27.425781 14.273438 -27.785156 C 14.074219 -27.945312 13.550781 -28.066406 12.628906 -28.066406 L 3.96875 -28.066406 C 2.003906 -28.066406 1.964844 -27.984375 1.964844 -25.980469 L 1.964844 -15.515625 L 0.359375 -14.59375 C 0.160156 -14.472656 0.0390625 -14.273438 0.0390625 -14.03125 C 0.0390625 -13.753906 0.160156 -13.59375 0.359375 -13.472656 L 1.964844 -12.550781 L 1.964844 -2.644531 C 1.964844 -1.164062 1.925781 -0.640625 2.285156 -0.320312 C 2.644531 0 3.328125 0 3.890625 0 L 12.589844 0 C 13.429688 0 14.394531 0.0820312 14.472656 -0.882812 C 14.59375 -1.84375 14.59375 -2.847656 14.515625 -3.890625 Z M 14.515625 -3.890625 "/></g></g></g><g fill="#000000" fill-opacity="1"><g transform="translate(198.529267, 148.672323)"><g><path d="M 17.160156 -14.632812 L 15.554688 -15.554688 L 15.554688 -21.570312 C 15.554688 -23.375 15.074219 -24.699219 13.109375 -26.703125 C 12.109375 -27.746094 10.867188 -28.226562 9.421875 -28.226562 C 9.34375 -28.226562 7.457031 -28.226562 3.730469 -28.1875 C 2.96875 -28.1875 2.085938 -28.265625 1.964844 -27.304688 C 1.964844 -26.984375 1.925781 -26.503906 1.925781 -25.902344 L 1.925781 -15.554688 L 0.320312 -14.632812 C 0.121094 -14.515625 0 -14.3125 0 -14.074219 C 0 -13.792969 0.121094 -13.632812 0.320312 -13.511719 L 1.925781 -12.589844 L 1.925781 -2.484375 C 1.925781 -1.042969 1.925781 -0.5625 2.246094 -0.242188 C 2.367188 -0.121094 2.644531 0 3.046875 0 L 3.207031 0 C 10.464844 0 11.988281 0.679688 14.515625 -3.085938 C 15.195312 -4.167969 15.554688 -5.414062 15.554688 -6.855469 L 15.554688 -12.589844 L 17.160156 -13.511719 C 17.359375 -13.632812 17.480469 -13.792969 17.480469 -14.074219 C 17.480469 -14.3125 17.359375 -14.515625 17.160156 -14.632812 Z M 10.824219 -20.246094 L 10.824219 -6.9375 C 10.824219 -5.371094 8.941406 -4.332031 7.417969 -4.890625 C 6.65625 -5.210938 6.695312 -6.015625 6.695312 -6.976562 L 6.695312 -21.691406 C 6.65625 -23.175781 7.136719 -23.535156 8.660156 -23.414062 C 9.941406 -23.335938 10.664062 -22.652344 10.785156 -21.328125 C 10.824219 -21.128906 10.824219 -20.769531 10.824219 -20.246094 Z M 10.824219 -20.246094 "/></g></g></g><g fill="#000000" fill-opacity="1"><g transform="translate(217.61403, 148.672323)"><g><path d="M 8.300781 -14.632812 L 6.695312 -15.554688 L 6.695312 -25.78125 C 6.695312 -27.144531 6.855469 -28.027344 5.773438 -28.144531 C 5.011719 -28.1875 2.605469 -28.265625 2.207031 -27.867188 C 2.042969 -27.703125 1.964844 -27.105469 1.964844 -26.140625 L 1.964844 -15.554688 L 0.359375 -14.632812 C 0.121094 -14.515625 0 -14.3125 0 -14.074219 C 0 -13.792969 0.121094 -13.632812 0.359375 -13.511719 L 1.964844 -12.589844 L 1.964844 -2.246094 C 1.964844 -1.121094 1.84375 -0.121094 2.925781 -0.0390625 C 3.328125 0 3.890625 0 4.652344 0 C 6.617188 0 6.695312 -0.0390625 6.695312 -2.042969 L 6.695312 -12.589844 L 8.300781 -13.511719 C 8.5 -13.632812 8.621094 -13.792969 8.621094 -14.074219 C 8.621094 -14.3125 8.5 -14.515625 8.300781 -14.632812 Z M 8.300781 -14.632812 "/></g></g></g><g fill="#000000" fill-opacity="1"><g transform="translate(228.078584, 148.672323)"><g><path d="M 15.515625 -9.621094 C 15.515625 -10.183594 15.195312 -10.503906 14.632812 -10.542969 C 13.710938 -10.585938 12.789062 -10.585938 11.949219 -10.542969 C 11.105469 -10.542969 10.90625 -10.265625 10.824219 -9.382812 L 10.824219 -7.175781 C 10.785156 -5.691406 9.742188 -4.53125 8.5 -4.609375 C 7.257812 -4.691406 6.65625 -5.8125 6.535156 -6.816406 C 6.457031 -7.296875 6.457031 -7.816406 6.457031 -8.378906 C 6.414062 -11.507812 6.414062 -15.355469 6.457031 -20.007812 C 6.457031 -21.007812 6.375 -21.929688 7.175781 -22.8125 C 7.578125 -23.253906 8.058594 -23.496094 8.621094 -23.496094 C 9.742188 -23.496094 10.746094 -22.453125 10.824219 -20.929688 C 10.867188 -18.402344 10.664062 -18.242188 11.789062 -18.164062 C 12.628906 -18.121094 13.429688 -18.121094 14.273438 -18.164062 C 15.234375 -18.164062 15.515625 -18.402344 15.554688 -19.367188 C 15.597656 -20.566406 15.796875 -23.695312 14.59375 -25.140625 C 13.269531 -26.703125 12.109375 -27.625 11.144531 -27.984375 C 10.824219 -28.105469 10.425781 -28.144531 10.0625 -28.1875 C 9.542969 -28.1875 8.699219 -28.226562 7.539062 -28.1875 C 7.136719 -28.1875 6.695312 -28.105469 6.175781 -27.90625 C 3.570312 -26.941406 1.882812 -24.296875 1.964844 -21.851562 C 2.042969 -20.769531 2.042969 -18.765625 2.003906 -15.554688 L 0.402344 -14.632812 C 0.199219 -14.472656 0.0820312 -14.3125 0.0820312 -14.03125 C 0.0820312 -13.792969 0.199219 -13.632812 0.402344 -13.472656 L 2.003906 -12.550781 L 2.003906 -5.972656 C 2.003906 -4.652344 2.246094 -3.609375 2.847656 -2.847656 C 6.976562 2.765625 14.355469 0.519531 15.4375 -5.09375 C 15.597656 -5.894531 15.636719 -7.378906 15.515625 -9.621094 Z M 15.515625 -9.621094 "/></g></g></g><g fill="#000000" fill-opacity="1"><g transform="translate(245.519493, 148.672323)"><g><path d="M 13.03125 -28.066406 L 3.40625 -28.066406 C 2.484375 -28.066406 2.003906 -28.144531 1.683594 -27.867188 C 1.5625 -27.746094 1.445312 -27.503906 1.445312 -27.183594 C 1.402344 -26.261719 1.402344 -25.339844 1.445312 -24.496094 C 1.484375 -23.695312 1.765625 -23.496094 2.566406 -23.453125 C 2.726562 -23.414062 3.046875 -23.414062 3.488281 -23.414062 C 4.289062 -23.414062 5.09375 -23.414062 5.492188 -22.972656 C 5.855469 -22.574219 5.855469 -22.050781 5.855469 -20.6875 L 5.855469 -15.597656 L 4.007812 -14.554688 C 3.808594 -14.394531 3.730469 -14.234375 3.730469 -13.992188 C 3.730469 -13.710938 3.808594 -13.511719 4.007812 -13.390625 L 5.855469 -12.347656 L 5.855469 -2.207031 C 5.855469 -1.003906 5.691406 -0.0390625 6.734375 0 C 7.699219 0.0390625 8.699219 0.0390625 9.742188 0 C 10.707031 -0.0820312 10.585938 -1.003906 10.585938 -2.445312 L 10.585938 -12.390625 L 12.347656 -13.390625 C 12.550781 -13.511719 12.667969 -13.710938 12.667969 -13.992188 C 12.667969 -14.234375 12.550781 -14.394531 12.347656 -14.554688 L 10.585938 -15.554688 L 10.585938 -20.289062 C 10.585938 -21.851562 10.542969 -22.53125 11.027344 -22.972656 C 11.507812 -23.453125 12.347656 -23.414062 13.152344 -23.414062 C 13.871094 -23.414062 14.433594 -23.414062 14.753906 -23.695312 C 14.875 -23.855469 14.953125 -24.097656 14.953125 -24.457031 C 14.996094 -24.777344 14.996094 -25.378906 14.996094 -26.179688 C 14.996094 -28.066406 14.914062 -28.066406 13.03125 -28.066406 Z M 13.03125 -28.066406 "/></g></g></g><g fill="#000000" fill-opacity="1"><g transform="translate(261.958048, 148.672323)"><g><path d="M 16.117188 -2.207031 C 15.035156 -6.457031 14.3125 -9.179688 13.953125 -10.464844 C 13.710938 -11.46875 13.832031 -12.308594 14.394531 -12.992188 C 15.15625 -13.953125 15.554688 -14.914062 15.554688 -15.835938 C 15.597656 -19.527344 15.597656 -21.890625 15.554688 -22.972656 C 15.476562 -25.21875 13.871094 -27.105469 11.707031 -27.625 C 10.425781 -27.984375 9.261719 -28.144531 8.257812 -28.105469 L 6.132812 -28.105469 C 3.808594 -28.105469 2.644531 -28.1875 2.285156 -27.824219 C 2.085938 -27.625 2.003906 -27.023438 2.003906 -26.019531 L 2.003906 -15.476562 L 0.402344 -14.554688 C 0.199219 -14.433594 0.0820312 -14.234375 0.0820312 -13.992188 C 0.0820312 -13.710938 0.199219 -13.550781 0.402344 -13.390625 L 2.003906 -12.507812 L 2.003906 -2.324219 C 2.003906 -1.003906 1.84375 -0.0390625 2.925781 0 C 3.890625 0.0390625 4.851562 0.0390625 5.773438 0 C 6.894531 -0.0390625 6.734375 -0.960938 6.734375 -2.164062 L 6.734375 -7.816406 C 6.777344 -9.0625 6.695312 -10.144531 7.859375 -10.304688 C 9.019531 -10.464844 9.222656 -9.421875 9.382812 -8.660156 L 10.144531 -5.414062 C 10.542969 -3.847656 10.824219 -2.765625 10.945312 -2.164062 C 11.1875 -1.042969 11.304688 -0.121094 12.1875 0 C 13.511719 0.0820312 14.714844 0.0820312 15.796875 -0.0390625 C 16.238281 -0.0820312 16.480469 -0.441406 16.398438 -0.84375 C 16.359375 -1.203125 16.277344 -1.683594 16.117188 -2.207031 Z M 11.105469 -21.007812 L 11.105469 -17.402344 C 11.105469 -17.320312 11.066406 -17.160156 11.027344 -16.917969 C 10.707031 -15.4375 9.300781 -14.554688 7.816406 -14.914062 C 7.136719 -15.117188 6.816406 -15.515625 6.816406 -16.199219 C 6.816406 -16.277344 6.777344 -17.402344 6.777344 -19.164062 C 6.777344 -22.492188 6.335938 -23.574219 8.582031 -23.292969 C 8.742188 -23.253906 8.902344 -23.214844 9.179688 -23.175781 C 10.503906 -22.855469 11.027344 -22.292969 11.105469 -21.007812 Z M 11.105469 -21.007812 "/></g></g></g><g fill="#000000" fill-opacity="1"><g transform="translate(279.839996, 148.672323)"><g><path d="M 16.558594 -28.027344 C 15.675781 -28.066406 14.515625 -28.066406 13.070312 -28.066406 C 12.628906 -28.027344 12.308594 -27.785156 12.148438 -27.34375 C 11.867188 -26.621094 11.425781 -25.21875 10.746094 -23.054688 C 10.464844 -22.210938 10.265625 -21.570312 10.0625 -21.007812 C 9.984375 -20.6875 9.824219 -20.527344 9.542969 -20.527344 C 9.101562 -20.527344 8.859375 -21.210938 8.699219 -21.730469 C 8.460938 -22.414062 7.980469 -23.976562 7.859375 -24.457031 C 7.496094 -25.578125 7.175781 -26.503906 6.9375 -27.144531 C 6.777344 -27.664062 6.496094 -27.945312 6.132812 -28.027344 C 4.890625 -28.1875 3.570312 -28.1875 2.207031 -28.027344 C 1.882812 -27.984375 1.644531 -27.625 1.722656 -27.304688 C 1.84375 -26.863281 1.964844 -26.421875 2.125 -25.941406 L 5.210938 -17 C 5.371094 -16.558594 5.691406 -15.71875 6.09375 -14.554688 L 5.210938 -13.992188 C 4.972656 -13.871094 4.890625 -13.710938 4.890625 -13.429688 C 4.890625 -13.191406 4.972656 -12.992188 5.210938 -12.871094 L 6.9375 -11.828125 C 7.175781 -10.90625 7.257812 -10.0625 7.21875 -9.261719 L 7.21875 -3.289062 C 7.21875 -2.042969 7.257812 -1.324219 7.257812 -1.042969 C 7.335938 -0.28125 7.578125 -0.0390625 8.339844 0 L 9.78125 0 C 11.949219 0 11.949219 0 11.949219 -2.207031 C 11.988281 -3.6875 11.988281 -6.457031 11.949219 -10.542969 C 11.949219 -11.027344 11.988281 -11.46875 12.066406 -11.867188 L 13.792969 -12.871094 C 14.03125 -12.992188 14.113281 -13.191406 14.113281 -13.429688 C 14.113281 -13.710938 14.03125 -13.871094 13.792969 -13.992188 L 12.949219 -14.515625 C 14.03125 -17.640625 15.4375 -21.570312 17.039062 -26.300781 C 17.28125 -26.941406 17.402344 -27.382812 17.160156 -27.746094 C 17 -27.945312 16.800781 -28.027344 16.558594 -28.027344 Z M 16.558594 -28.027344 "/></g></g></g><g clip-path="url(#a41df55126)"><path fill="#46a541" d="M 328.472656 123.363281 C 310.085938 123.28125 300.214844 131.992188 299.371094 150.03125 C 299.359375 150.257812 299.035156 150.269531 299.003906 150.046875 C 298.183594 144.152344 298.34375 138.78125 299.816406 134.113281 C 304.679688 118.703125 323.230469 116.679688 336.394531 121.558594 C 337.050781 121.800781 337.183594 122.660156 336.636719 123.101562 C 326.371094 131.4375 327.769531 154.183594 302.777344 144.324219 C 306.679688 132.011719 314.683594 124.382812 328.472656 123.363281 " fill-opacity="1" fill-rule="evenodd"/></g></svg>