<svg xmlns="http://www.w3.org/2000/svg" xmlns:xlink="http://www.w3.org/1999/xlink" width="500" zoomAndPan="magnify" viewBox="0 0 375 374.999991" height="500" preserveAspectRatio="xMidYMid meet" version="1.0"><defs><g/><clipPath id="9f3e2f0a45"><path d="M 85 197 L 97 197 L 97 201.898438 L 85 201.898438 Z M 85 197 " clip-rule="nonzero"/></clipPath><clipPath id="ccf64b40ee"><path d="M 88 200 L 94 200 L 94 201.898438 L 88 201.898438 Z M 88 200 " clip-rule="nonzero"/></clipPath><clipPath id="9504f762c3"><path d="M 105 165.148438 L 128 165.148438 L 128 201.898438 L 105 201.898438 Z M 105 165.148438 " clip-rule="nonzero"/></clipPath><clipPath id="c129b0292f"><path d="M 85 165.148438 L 108 165.148438 L 108 201.898438 L 85 201.898438 Z M 85 165.148438 " clip-rule="nonzero"/></clipPath><clipPath id="d2b334e55e"><path d="M 90 201 L 108 201 L 108 201.898438 L 90 201.898438 Z M 90 201 " clip-rule="nonzero"/></clipPath><clipPath id="bb94af199c"><path d="M 95.378906 219 L 131.378906 219 L 131.378906 222.648438 L 95.378906 222.648438 Z M 95.378906 219 " clip-rule="nonzero"/></clipPath><clipPath id="30dc9fc9a5"><path d="M 247.027344 219 L 289.027344 219 L 289.027344 222.648438 L 247.027344 222.648438 Z M 247.027344 219 " clip-rule="nonzero"/></clipPath><clipPath id="02d0566aea"><path d="M 79.671875 196.328125 L 95.421875 196.328125 L 95.421875 208.328125 L 79.671875 208.328125 Z M 79.671875 196.328125 " clip-rule="nonzero"/></clipPath><clipPath id="78f4b3fc8c"><path d="M 270 173.488281 L 295.746094 173.488281 L 295.746094 174 L 270 174 Z M 270 173.488281 " clip-rule="nonzero"/></clipPath><clipPath id="5a233b05f6"><path d="M 285 173.488281 L 295.746094 173.488281 L 295.746094 181 L 285 181 Z M 285 173.488281 " clip-rule="nonzero"/></clipPath><clipPath id="0993208054"><path d="M 269 173.488281 L 287 173.488281 L 287 181 L 269 181 Z M 269 173.488281 " clip-rule="nonzero"/></clipPath><clipPath id="53ad129b36"><path d="M 272 179 L 287 179 L 287 198.988281 L 272 198.988281 Z M 272 179 " clip-rule="nonzero"/></clipPath><clipPath id="1b2e89be77"><path d="M 93.503906 198.757812 L 97.253906 198.757812 L 97.253906 208.507812 L 93.503906 208.507812 Z M 93.503906 198.757812 " clip-rule="nonzero"/></clipPath></defs><rect x="-37.5" width="450" fill="#ffffff" y="-37.499999" height="449.999989" fill-opacity="1"/><rect x="-37.5" width="450" fill="#ffffff" y="-37.499999" height="449.999989" fill-opacity="1"/><g fill="#000000" fill-opacity="1"><g transform="translate(133.398984, 222.812299)"><g><path d="M 1.824219 0.210938 C 3.222656 0.339844 3.773438 -0.722656 4.429688 -1.589844 C 4.539062 -1.738281 5.363281 -2.863281 5.535156 -3.117188 C 5.511719 -2.121094 5.683594 -1.316406 5.875 -0.976562 C 6.277344 -0.277344 6.722656 0 7.167969 0 C 8.609375 0 10.09375 -2.839844 10.261719 -4.09375 C 10.285156 -4.324219 10.304688 -4.558594 10.304688 -4.792969 C 10.304688 -5.449219 10.175781 -6.085938 9.773438 -6.550781 C 9.5625 -6.828125 9.222656 -7.058594 9.054688 -7.058594 C 8.96875 -7.058594 8.925781 -7.019531 8.925781 -6.933594 C 8.925781 -6.871094 8.949219 -6.785156 8.988281 -6.679688 C 9.074219 -6.46875 9.117188 -6.191406 9.117188 -5.894531 C 9.117188 -5.40625 9.03125 -4.875 8.90625 -4.390625 C 8.777344 -3.945312 7.738281 -1.125 7.039062 -1.378906 C 6.847656 -1.464844 6.699219 -2.289062 6.699219 -3.074219 C 6.699219 -3.816406 6.828125 -4.515625 7.101562 -4.578125 C 7.207031 -5.109375 6.722656 -6.128906 6.042969 -5.980469 C 5.511719 -5.875 5.046875 -4.8125 4.707031 -4.390625 C 4.472656 -4.09375 2.375 -1.25 2.140625 -1.25 C 1.824219 -1.25 2.566406 -3.179688 3.160156 -4.558594 C 3.457031 -5.195312 4.539062 -6.871094 4.410156 -7.101562 C 4.304688 -7.273438 3.710938 -7.71875 3.308594 -7.71875 C 3.179688 -7.71875 3.054688 -7.675781 2.988281 -7.570312 C 2.121094 -6.171875 1.503906 -4.960938 1.292969 -4.410156 C 1.039062 -3.753906 0.636719 -2.542969 0.636719 -1.527344 C 0.636719 -0.679688 0.910156 0.0429688 1.824219 0.210938 Z M 1.824219 0.210938 "/></g></g></g><g fill="#000000" fill-opacity="1"><g transform="translate(144.33956, 222.812299)"><g><path d="M 2.863281 0.316406 C 4.007812 0.316406 5.386719 -0.425781 6.105469 -1.273438 C 6.722656 -1.992188 6.722656 -2.734375 6.59375 -2.609375 C 5.214844 -1.230469 3.710938 -0.742188 2.648438 -0.742188 C 2.246094 -0.742188 1.929688 -0.828125 1.761719 -1.019531 C 1.421875 -1.398438 1.441406 -2.015625 1.632812 -2.648438 C 1.992188 -2.417969 2.5 -2.289062 2.882812 -2.289062 C 2.988281 -2.289062 3.074219 -2.289062 3.160156 -2.3125 C 4.261719 -2.542969 5.003906 -3.5 5.28125 -4.390625 C 5.40625 -4.75 5.449219 -5.089844 5.449219 -5.386719 C 5.449219 -5.511719 5.449219 -5.617188 5.429688 -5.746094 C 5.363281 -6.105469 5.238281 -6.339844 4.898438 -6.53125 C 4.6875 -6.65625 4.453125 -6.722656 4.21875 -6.722656 C 2.714844 -6.722656 0.210938 -4.539062 0.210938 -2.203125 C 0.210938 -1.527344 0.277344 -0.976562 0.976562 -0.382812 C 1.441406 0 2.183594 0.316406 2.863281 0.316406 Z M 2.121094 -3.539062 C 2.714844 -4.621094 4.304688 -5.875 4.453125 -5.597656 C 4.621094 -5.300781 3.371094 -4.050781 3.160156 -3.902344 C 2.90625 -3.667969 2.5 -3.351562 2.121094 -3.539062 Z M 2.121094 -3.539062 "/></g></g></g><g fill="#000000" fill-opacity="1"><g transform="translate(150.043074, 222.812299)"><g/></g></g><g fill="#000000" fill-opacity="1"><g transform="translate(154.707662, 222.812299)"><g><path d="M 7.335938 0.253906 C 7.484375 0.253906 7.632812 0.253906 7.761719 0.210938 C 9.160156 -0.128906 10.472656 -2.714844 10.199219 -2.714844 C 10.175781 -2.714844 10.113281 -2.671875 10.027344 -2.585938 C 9.796875 -2.394531 8.714844 -1.125 7.738281 -0.890625 C 7.652344 -0.871094 7.570312 -0.871094 7.503906 -0.871094 C 7.125 -0.871094 6.996094 -1.144531 6.996094 -1.632812 C 6.996094 -2.734375 7.527344 -4.15625 7.464844 -5.003906 C 7.421875 -5.597656 6.59375 -6.550781 6.042969 -6.550781 C 4.984375 -6.550781 3.433594 -4.792969 2.289062 -2.945312 C 2.289062 -4.199219 4.917969 -10.878906 5.894531 -12.574219 C 6.0625 -12.890625 6.339844 -13.398438 6.339844 -13.824219 C 6.339844 -14.164062 5.957031 -14.503906 5.449219 -14.503906 C 4.664062 -14.503906 2.839844 -9.5625 1.84375 -6.933594 C 0.804688 -4.175781 0.277344 -2.164062 0.277344 -0.976562 C 0.277344 -0.507812 0.679688 0 1.441406 0 C 1.503906 0 1.589844 0 1.652344 -0.0195312 C 2.097656 -0.105469 2.3125 -0.550781 2.671875 -1.125 C 3.964844 -3.203125 4.367188 -3.6875 5.832031 -5.089844 C 5.597656 -3.6875 5.386719 -2.609375 5.386719 -1.78125 C 5.386719 -0.464844 6.382812 0.253906 7.335938 0.253906 Z M 7.335938 0.253906 "/></g></g></g><g fill="#000000" fill-opacity="1"><g transform="translate(163.697591, 222.812299)"><g><path d="M 2.863281 0.316406 C 4.007812 0.316406 5.386719 -0.425781 6.105469 -1.273438 C 6.722656 -1.992188 6.722656 -2.734375 6.59375 -2.609375 C 5.214844 -1.230469 3.710938 -0.742188 2.648438 -0.742188 C 2.246094 -0.742188 1.929688 -0.828125 1.761719 -1.019531 C 1.421875 -1.398438 1.441406 -2.015625 1.632812 -2.648438 C 1.992188 -2.417969 2.5 -2.289062 2.882812 -2.289062 C 2.988281 -2.289062 3.074219 -2.289062 3.160156 -2.3125 C 4.261719 -2.542969 5.003906 -3.5 5.28125 -4.390625 C 5.40625 -4.75 5.449219 -5.089844 5.449219 -5.386719 C 5.449219 -5.511719 5.449219 -5.617188 5.429688 -5.746094 C 5.363281 -6.105469 5.238281 -6.339844 4.898438 -6.53125 C 4.6875 -6.65625 4.453125 -6.722656 4.21875 -6.722656 C 2.714844 -6.722656 0.210938 -4.539062 0.210938 -2.203125 C 0.210938 -1.527344 0.277344 -0.976562 0.976562 -0.382812 C 1.441406 0 2.183594 0.316406 2.863281 0.316406 Z M 2.121094 -3.539062 C 2.714844 -4.621094 4.304688 -5.875 4.453125 -5.597656 C 4.621094 -5.300781 3.371094 -4.050781 3.160156 -3.902344 C 2.90625 -3.667969 2.5 -3.351562 2.121094 -3.539062 Z M 2.121094 -3.539062 "/></g></g></g><g fill="#000000" fill-opacity="1"><g transform="translate(169.401104, 222.812299)"><g><path d="M 3.414062 0.464844 C 4.28125 0.464844 5.214844 -0.210938 5.746094 -0.742188 C 6.128906 -1.125 6.46875 -1.910156 6.402344 -2.140625 C 6.320312 -2.4375 6.171875 -2.140625 5.46875 -1.546875 C 4.960938 -1.101562 4.007812 -0.507812 3.160156 -0.507812 C 2.035156 -0.507812 1.992188 -1.589844 1.992188 -1.972656 C 3.285156 -2.882812 4.515625 -4.835938 4.960938 -5.511719 C 5.789062 -6.742188 6.46875 -8.058594 7.039062 -9.414062 C 7.484375 -10.472656 7.675781 -11.578125 7.652344 -12.574219 C 7.632812 -13.378906 6.699219 -13.824219 6 -13.824219 C 5.875 -13.824219 5.746094 -13.824219 5.640625 -13.78125 C 4.960938 -13.546875 4.664062 -13.125 4.304688 -12.59375 C 3.605469 -11.578125 3.160156 -10.792969 2.628906 -9.625 C 2.164062 -8.609375 1.71875 -7.484375 1.398438 -6.445312 C 1.019531 -5.214844 0.613281 -3.796875 0.613281 -2.566406 C 0.613281 -1.503906 0.722656 -0.507812 1.613281 0.0195312 C 2.246094 0.402344 2.96875 0.464844 3.414062 0.464844 Z M 2.058594 -3.433594 C 2.3125 -4.578125 2.691406 -5.660156 3.074219 -6.550781 C 4.050781 -8.90625 5.9375 -12.65625 6.445312 -12.65625 C 6.53125 -12.65625 6.574219 -12.574219 6.574219 -12.382812 C 6.574219 -12.320312 6.574219 -12.234375 6.550781 -12.148438 C 6.359375 -10.496094 5.554688 -9.054688 4.941406 -7.71875 C 4.558594 -6.890625 3.984375 -5.957031 3.457031 -5.214844 C 3.117188 -4.726562 2.691406 -4.15625 2.058594 -3.433594 Z M 2.058594 -3.433594 "/></g></g></g><g fill="#000000" fill-opacity="1"><g transform="translate(175.253042, 222.812299)"><g><path d="M -0.0625 8.207031 C -0.507812 7.503906 -0.425781 6.699219 -0.277344 5.914062 C -0.0625 4.601562 0.359375 3.351562 0.761719 2.058594 C 1.503906 -0.382812 3.160156 -2.820312 5.023438 -4.515625 C 5.320312 -4.769531 5.957031 -5.363281 6.402344 -5.363281 C 6.507812 -5.363281 6.550781 -5.238281 6.550781 -5.046875 C 6.574219 -4.28125 5.851562 -2.90625 5.511719 -2.375 C 5.066406 -1.652344 4.132812 -0.976562 3.265625 -1.144531 C 2.757812 -1.25 3.179688 -0.0195312 4.242188 -0.0195312 C 6.128906 -0.0195312 7.78125 -3.222656 7.84375 -4.28125 C 7.992188 -5.300781 7.273438 -6.425781 6.296875 -6.425781 C 6.128906 -6.425781 5.957031 -6.402344 5.789062 -6.339844 C 4.835938 -6 3.902344 -4.898438 3.648438 -4.621094 C 3.433594 -4.410156 3.222656 -4.21875 2.566406 -3.308594 C 3.203125 -4.726562 3.605469 -5.726562 4.28125 -7.019531 C 4.539062 -7.503906 4.390625 -7.84375 4.132812 -7.910156 C 3.648438 -8.035156 3.476562 -8.097656 3.242188 -7.972656 C 2.988281 -7.84375 2.734375 -7.398438 2.246094 -6.210938 C 1.71875 -4.941406 1.207031 -3.667969 0.742188 -2.375 C -0.0859375 -0.148438 -0.871094 2.121094 -1.441406 4.410156 C -1.695312 5.40625 -1.992188 6.445312 -1.761719 7.316406 C -1.398438 8.714844 0.210938 8.652344 -0.0625 8.207031 Z M -0.0625 8.207031 "/></g></g></g><g fill="#000000" fill-opacity="1"><g transform="translate(183.75531, 222.812299)"><g/></g></g><g fill="#000000" fill-opacity="1"><g transform="translate(188.419898, 222.812299)"><g><path d="M 1.992188 8.355469 C 3.984375 8.355469 7.546875 -1.867188 7.910156 -4.175781 C 8.035156 -5.003906 8.394531 -5.363281 8.394531 -5.851562 C 8.417969 -6.425781 7.910156 -6.722656 7.421875 -6.722656 C 7.230469 -6.722656 7.058594 -6.679688 6.910156 -6.59375 C 6.320312 -6.234375 5.808594 -5.535156 5.320312 -5.046875 C 4.75 -4.472656 2.035156 -1.652344 2.035156 -2.269531 C 2.035156 -2.542969 2.203125 -3.265625 2.460938 -3.878906 C 2.585938 -4.199219 2.714844 -4.496094 3.03125 -5.171875 C 3.074219 -5.257812 3.09375 -5.320312 3.09375 -5.386719 C 3.09375 -5.511719 2.988281 -5.640625 2.691406 -5.875 C 2.542969 -5.980469 2.078125 -6.253906 1.910156 -6.210938 C 1.273438 -6.085938 0.785156 -3.796875 0.65625 -3.242188 C 0.574219 -2.90625 0.53125 -2.566406 0.53125 -2.269531 C 0.53125 -1.230469 0.996094 -0.445312 1.84375 -0.445312 C 2.140625 -0.445312 2.796875 -0.847656 3.371094 -1.335938 C 4.75 -2.5 5.660156 -3.390625 6.402344 -4.367188 C 6.320312 -3.328125 5.34375 -0.445312 5.171875 -0.0429688 C 4.726562 1.125 4.539062 1.695312 4.007812 2.820312 C 3.5625 3.773438 3.136719 4.726562 2.609375 5.617188 C 2.4375 5.894531 1.949219 6.785156 1.613281 6.871094 C 1.273438 6.953125 1.144531 6.65625 0.871094 6.359375 C 0.699219 6.148438 0.613281 5.980469 0.507812 5.980469 C 0.445312 5.980469 0.359375 6.0625 0.253906 6.277344 C 0.234375 6.359375 0.210938 6.507812 0.210938 6.636719 C 0.210938 6.742188 0.234375 6.847656 0.234375 6.890625 C 0.359375 7.738281 1.167969 8.4375 1.992188 8.355469 Z M 1.992188 8.355469 "/></g></g></g><g fill="#000000" fill-opacity="1"><g transform="translate(197.134194, 222.812299)"><g><path d="M 2.332031 0 C 3.308594 0 4.15625 -0.910156 4.835938 -1.675781 C 5.40625 -2.332031 6.023438 -2.90625 6.148438 -3.835938 C 6.171875 -3.945312 6.171875 -4.027344 6.171875 -4.132812 C 6.171875 -5.046875 5.429688 -5.238281 4.75 -5.808594 C 4.515625 -6 4.496094 -6.042969 4.496094 -6.105469 L 4.496094 -6.148438 C 4.496094 -6.210938 4.472656 -6.320312 4.367188 -6.550781 C 4.21875 -6.828125 3.648438 -7.273438 3.328125 -7.25 C 2.585938 -7.144531 1.632812 -5.089844 1.292969 -4.496094 C 0.933594 -3.859375 0.488281 -2.734375 0.488281 -1.78125 C 0.488281 -1.082031 0.742188 -0.464844 1.503906 -0.210938 C 1.78125 -0.0625 2.058594 0 2.332031 0 Z M 1.972656 -1.230469 C 1.867188 -1.230469 1.800781 -1.316406 1.800781 -1.484375 C 1.800781 -1.675781 1.929688 -2.097656 2.058594 -2.4375 C 2.269531 -3.011719 2.691406 -4.304688 3.5 -4.769531 C 3.859375 -4.984375 4.769531 -4.664062 4.769531 -4.6875 C 4.855469 -4.601562 4.898438 -4.515625 4.898438 -4.410156 C 4.898438 -3.730469 2.566406 -1.230469 1.972656 -1.230469 Z M 1.972656 -1.230469 "/></g></g></g><g fill="#000000" fill-opacity="1"><g transform="translate(203.346572, 222.812299)"><g><path d="M 1.421875 0.636719 C 2.375 0.742188 4.132812 -1.78125 5.449219 -3.160156 C 4.941406 -0.613281 6.148438 0.359375 7.335938 0.253906 C 8.800781 0.128906 10.582031 -2.566406 9.902344 -2.121094 C 9.605469 -1.992188 7.910156 -0.890625 6.933594 -0.890625 C 6.0625 -0.890625 6.890625 -3.605469 7.335938 -4.792969 C 7.503906 -5.300781 7.613281 -5.386719 7.378906 -5.832031 C 7.230469 -6.105469 6.785156 -6.46875 6.445312 -6.425781 C 6.042969 -6.359375 5.535156 -5.363281 5.257812 -5.046875 C 4.875 -4.601562 4.390625 -3.964844 4.027344 -3.519531 C 2.289062 -1.613281 1.761719 -0.910156 1.652344 -0.890625 C 1.273438 -0.804688 1.738281 -2.121094 1.929688 -2.714844 C 2.945312 -5.214844 3.457031 -5.660156 3.457031 -6.128906 C 3.457031 -6.785156 2.523438 -7.421875 2.164062 -7.292969 C 1.675781 -7.101562 0.722656 -3.921875 0.507812 -3.09375 C 0.191406 -1.929688 -0.339844 0.339844 1.421875 0.636719 Z M 1.421875 0.636719 "/></g></g></g><g fill="#000000" fill-opacity="1"><g transform="translate(212.315296, 222.812299)"><g/></g></g><g fill="#000000" fill-opacity="1"><g transform="translate(216.979885, 222.812299)"><g><path d="M 7.335938 0.253906 C 7.484375 0.253906 7.632812 0.253906 7.761719 0.210938 C 9.160156 -0.128906 10.472656 -2.714844 10.199219 -2.714844 C 10.175781 -2.714844 10.113281 -2.671875 10.027344 -2.585938 C 9.796875 -2.394531 8.714844 -1.125 7.738281 -0.890625 C 7.652344 -0.871094 7.570312 -0.871094 7.503906 -0.871094 C 7.125 -0.871094 6.996094 -1.144531 6.996094 -1.632812 C 6.996094 -2.734375 7.527344 -4.15625 7.464844 -5.003906 C 7.421875 -5.597656 6.59375 -6.550781 6.042969 -6.550781 C 4.984375 -6.550781 3.433594 -4.792969 2.289062 -2.945312 C 2.289062 -4.199219 4.917969 -10.878906 5.894531 -12.574219 C 6.0625 -12.890625 6.339844 -13.398438 6.339844 -13.824219 C 6.339844 -14.164062 5.957031 -14.503906 5.449219 -14.503906 C 4.664062 -14.503906 2.839844 -9.5625 1.84375 -6.933594 C 0.804688 -4.175781 0.277344 -2.164062 0.277344 -0.976562 C 0.277344 -0.507812 0.679688 0 1.441406 0 C 1.503906 0 1.589844 0 1.652344 -0.0195312 C 2.097656 -0.105469 2.3125 -0.550781 2.671875 -1.125 C 3.964844 -3.203125 4.367188 -3.6875 5.832031 -5.089844 C 5.597656 -3.6875 5.386719 -2.609375 5.386719 -1.78125 C 5.386719 -0.464844 6.382812 0.253906 7.335938 0.253906 Z M 7.335938 0.253906 "/></g></g></g><g fill="#000000" fill-opacity="1"><g transform="translate(225.969813, 222.812299)"><g><path d="M 2.863281 0.316406 C 4.007812 0.316406 5.386719 -0.425781 6.105469 -1.273438 C 6.722656 -1.992188 6.722656 -2.734375 6.59375 -2.609375 C 5.214844 -1.230469 3.710938 -0.742188 2.648438 -0.742188 C 2.246094 -0.742188 1.929688 -0.828125 1.761719 -1.019531 C 1.421875 -1.398438 1.441406 -2.015625 1.632812 -2.648438 C 1.992188 -2.417969 2.5 -2.289062 2.882812 -2.289062 C 2.988281 -2.289062 3.074219 -2.289062 3.160156 -2.3125 C 4.261719 -2.542969 5.003906 -3.5 5.28125 -4.390625 C 5.40625 -4.75 5.449219 -5.089844 5.449219 -5.386719 C 5.449219 -5.511719 5.449219 -5.617188 5.429688 -5.746094 C 5.363281 -6.105469 5.238281 -6.339844 4.898438 -6.53125 C 4.6875 -6.65625 4.453125 -6.722656 4.21875 -6.722656 C 2.714844 -6.722656 0.210938 -4.539062 0.210938 -2.203125 C 0.210938 -1.527344 0.277344 -0.976562 0.976562 -0.382812 C 1.441406 0 2.183594 0.316406 2.863281 0.316406 Z M 2.121094 -3.539062 C 2.714844 -4.621094 4.304688 -5.875 4.453125 -5.597656 C 4.621094 -5.300781 3.371094 -4.050781 3.160156 -3.902344 C 2.90625 -3.667969 2.5 -3.351562 2.121094 -3.539062 Z M 2.121094 -3.539062 "/></g></g></g><g fill="#000000" fill-opacity="1"><g transform="translate(231.673327, 222.812299)"><g><path d="M 6.507812 0.445312 C 7.972656 0.296875 9.542969 -2.609375 8.90625 -2.097656 C 8.609375 -1.949219 7.230469 -0.722656 6.171875 -0.636719 C 5.617188 -0.59375 5.46875 -0.953125 5.46875 -1.421875 C 5.46875 -2.609375 6.253906 -4.558594 6.828125 -5.597656 C 6.976562 -5.875 6.761719 -6.191406 6.359375 -6.382812 C 6.148438 -6.507812 5.617188 -6.785156 5.363281 -6.382812 C 4.199219 -7.1875 2.714844 -6.382812 1.695312 -5.257812 C -0.0429688 -3.390625 -1.230469 -0.339844 1.058594 -0.0859375 C 1.800781 -0.0195312 2.863281 -0.53125 4.199219 -1.972656 C 4.324219 -0.382812 5.28125 0.574219 6.507812 0.445312 Z M 1.144531 -1.503906 C 2.015625 -3.710938 4.113281 -5.765625 4.707031 -5.214844 C 4.707031 -4.027344 0.722656 -0.128906 1.144531 -1.503906 Z M 1.144531 -1.503906 "/></g></g></g><g fill="#000000" fill-opacity="1"><g transform="translate(239.666737, 222.812299)"><g><path d="M 3.414062 0.464844 C 4.28125 0.464844 5.214844 -0.210938 5.746094 -0.742188 C 6.128906 -1.125 6.46875 -1.910156 6.402344 -2.140625 C 6.320312 -2.4375 6.171875 -2.140625 5.46875 -1.546875 C 4.960938 -1.101562 4.007812 -0.507812 3.160156 -0.507812 C 2.035156 -0.507812 1.992188 -1.589844 1.992188 -1.972656 C 3.285156 -2.882812 4.515625 -4.835938 4.960938 -5.511719 C 5.789062 -6.742188 6.46875 -8.058594 7.039062 -9.414062 C 7.484375 -10.472656 7.675781 -11.578125 7.652344 -12.574219 C 7.632812 -13.378906 6.699219 -13.824219 6 -13.824219 C 5.875 -13.824219 5.746094 -13.824219 5.640625 -13.78125 C 4.960938 -13.546875 4.664062 -13.125 4.304688 -12.59375 C 3.605469 -11.578125 3.160156 -10.792969 2.628906 -9.625 C 2.164062 -8.609375 1.71875 -7.484375 1.398438 -6.445312 C 1.019531 -5.214844 0.613281 -3.796875 0.613281 -2.566406 C 0.613281 -1.503906 0.722656 -0.507812 1.613281 0.0195312 C 2.246094 0.402344 2.96875 0.464844 3.414062 0.464844 Z M 2.058594 -3.433594 C 2.3125 -4.578125 2.691406 -5.660156 3.074219 -6.550781 C 4.050781 -8.90625 5.9375 -12.65625 6.445312 -12.65625 C 6.53125 -12.65625 6.574219 -12.574219 6.574219 -12.382812 C 6.574219 -12.320312 6.574219 -12.234375 6.550781 -12.148438 C 6.359375 -10.496094 5.554688 -9.054688 4.941406 -7.71875 C 4.558594 -6.890625 3.984375 -5.957031 3.457031 -5.214844 C 3.117188 -4.726562 2.691406 -4.15625 2.058594 -3.433594 Z M 2.058594 -3.433594 "/></g></g></g><path fill="#ab0520" d="M 87.375 184.453125 C 87.375 184.453125 87.472656 184.597656 87.671875 184.855469 C 87.867188 185.113281 88.167969 185.484375 88.566406 185.9375 C 88.96875 186.390625 89.476562 186.921875 90.085938 187.5 C 90.699219 188.074219 91.421875 188.683594 92.246094 189.300781 C 92.453125 189.453125 92.664062 189.609375 92.886719 189.757812 C 92.996094 189.835938 93.109375 189.910156 93.21875 189.988281 C 93.332031 190.0625 93.449219 190.132812 93.566406 190.210938 C 93.683594 190.28125 93.800781 190.359375 93.917969 190.433594 C 94.039062 190.507812 94.160156 190.578125 94.28125 190.652344 C 94.40625 190.726562 94.527344 190.796875 94.652344 190.871094 C 94.78125 190.941406 94.910156 191.011719 95.035156 191.082031 C 96.066406 191.640625 97.199219 192.140625 98.40625 192.558594 C 98.703125 192.667969 99.015625 192.75 99.324219 192.847656 C 99.628906 192.949219 99.949219 193.019531 100.265625 193.105469 C 100.578125 193.191406 100.90625 193.246094 101.230469 193.320312 C 101.550781 193.394531 101.882812 193.4375 102.210938 193.496094 C 103.53125 193.699219 104.898438 193.789062 106.246094 193.769531 L 106.765625 193.757812 L 107.027344 193.75 C 107.113281 193.746094 107.195312 193.738281 107.28125 193.734375 C 107.613281 193.707031 107.949219 193.691406 108.285156 193.65625 C 108.621094 193.617188 108.957031 193.578125 109.289062 193.539062 C 109.621094 193.484375 109.953125 193.433594 110.285156 193.378906 C 110.609375 193.3125 110.9375 193.242188 111.261719 193.175781 C 111.582031 193.09375 111.902344 193.015625 112.222656 192.9375 C 112.539062 192.847656 112.847656 192.75 113.160156 192.660156 C 113.46875 192.558594 113.773438 192.453125 114.074219 192.351562 C 115.273438 191.914062 116.40625 191.40625 117.441406 190.851562 C 117.699219 190.707031 117.949219 190.5625 118.199219 190.425781 C 118.445312 190.277344 118.683594 190.128906 118.921875 189.988281 C 119.15625 189.835938 119.382812 189.691406 119.609375 189.546875 C 119.828125 189.394531 120.046875 189.25 120.257812 189.101562 C 121.097656 188.5 121.839844 187.910156 122.472656 187.359375 C 123.105469 186.804688 123.640625 186.300781 124.0625 185.867188 C 124.488281 185.433594 124.808594 185.082031 125.023438 184.835938 C 125.234375 184.589844 125.34375 184.453125 125.34375 184.453125 C 125.34375 184.453125 125.253906 184.601562 125.070312 184.871094 C 124.886719 185.140625 124.609375 185.535156 124.222656 186.007812 C 123.839844 186.484375 123.355469 187.050781 122.753906 187.65625 C 122.160156 188.265625 121.453125 188.929688 120.632812 189.589844 C 120.425781 189.753906 120.210938 189.917969 119.996094 190.085938 C 119.773438 190.25 119.546875 190.414062 119.316406 190.582031 C 119.085938 190.746094 118.84375 190.90625 118.597656 191.070312 C 118.347656 191.226562 118.09375 191.382812 117.835938 191.542969 C 116.792969 192.167969 115.648438 192.75 114.410156 193.238281 C 114.097656 193.351562 113.789062 193.476562 113.46875 193.585938 C 113.144531 193.691406 112.824219 193.796875 112.496094 193.898438 C 112.164062 193.988281 111.835938 194.082031 111.5 194.171875 C 111.160156 194.246094 110.820312 194.320312 110.480469 194.398438 C 110.136719 194.457031 109.789062 194.519531 109.441406 194.578125 C 109.09375 194.628906 108.742188 194.667969 108.390625 194.710938 C 108.039062 194.75 107.679688 194.769531 107.320312 194.796875 C 107.230469 194.804688 107.140625 194.8125 107.054688 194.816406 L 106.792969 194.824219 L 106.273438 194.835938 C 104.84375 194.851562 103.425781 194.753906 102.042969 194.515625 C 101.699219 194.453125 101.355469 194.402344 101.019531 194.316406 C 100.679688 194.234375 100.339844 194.171875 100.011719 194.070312 C 99.351562 193.890625 98.703125 193.683594 98.082031 193.445312 C 96.835938 192.976562 95.683594 192.398438 94.640625 191.769531 C 94.511719 191.691406 94.382812 191.613281 94.253906 191.535156 C 94.128906 191.453125 94.003906 191.375 93.882812 191.292969 C 93.757812 191.210938 93.636719 191.128906 93.515625 191.050781 C 93.398438 190.964844 93.28125 190.878906 93.164062 190.796875 C 93.050781 190.710938 92.933594 190.632812 92.820312 190.546875 C 92.710938 190.460938 92.601562 190.375 92.492188 190.289062 C 92.273438 190.125 92.070312 189.949219 91.867188 189.78125 C 91.054688 189.101562 90.371094 188.417969 89.796875 187.785156 C 89.21875 187.152344 88.761719 186.5625 88.402344 186.070312 C 88.042969 185.578125 87.789062 185.167969 87.621094 184.890625 C 87.453125 184.609375 87.375 184.453125 87.375 184.453125 " fill-opacity="1" fill-rule="nonzero"/><path fill="#ab0520" d="M 112.40625 167.503906 C 112.78125 168 112.683594 168.699219 112.1875 169.074219 L 110.476562 170.367188 C 109.984375 170.742188 109.28125 170.644531 108.90625 170.152344 L 108.511719 169.628906 C 108.136719 169.136719 108.234375 168.433594 108.730469 168.0625 L 110.441406 166.765625 C 110.9375 166.394531 111.640625 166.492188 112.011719 166.984375 L 112.40625 167.503906 " fill-opacity="1" fill-rule="nonzero"/><path fill="#ab0520" d="M 100.589844 167.503906 C 100.214844 168 100.3125 168.699219 100.808594 169.074219 L 102.519531 170.367188 C 103.011719 170.742188 103.714844 170.644531 104.089844 170.152344 L 104.484375 169.628906 C 104.859375 169.136719 104.761719 168.433594 104.265625 168.0625 L 102.554688 166.765625 C 102.058594 166.394531 101.355469 166.492188 100.984375 166.984375 L 100.589844 167.503906 " fill-opacity="1" fill-rule="nonzero"/><g clip-path="url(#9f3e2f0a45)"><path fill="#ab0520" d="M 91.089844 199.273438 C 88.84375 199.273438 87.011719 201.101562 87.011719 203.347656 C 87.011719 205.59375 88.84375 207.421875 91.089844 207.421875 C 93.339844 207.421875 95.171875 205.59375 95.171875 203.347656 C 95.171875 201.101562 93.339844 199.273438 91.089844 199.273438 Z M 91.089844 209.027344 C 87.957031 209.027344 85.40625 206.480469 85.40625 203.347656 C 85.40625 200.214844 87.957031 197.667969 91.089844 197.667969 C 94.226562 197.667969 96.777344 200.214844 96.777344 203.347656 C 96.777344 206.480469 94.226562 209.027344 91.089844 209.027344 " fill-opacity="1" fill-rule="nonzero"/></g><g clip-path="url(#ccf64b40ee)"><path fill="#ab0520" d="M 93.777344 203.347656 C 93.777344 201.867188 92.574219 200.664062 91.089844 200.664062 C 89.609375 200.664062 88.40625 201.867188 88.40625 203.347656 C 88.40625 204.828125 89.609375 206.03125 91.089844 206.03125 C 92.574219 206.03125 93.777344 204.828125 93.777344 203.347656 " fill-opacity="1" fill-rule="nonzero"/></g><g clip-path="url(#9504f762c3)"><path fill="#ab0520" d="M 106.359375 203.445312 C 106.28125 203.445312 106.199219 203.433594 106.121094 203.40625 C 105.695312 203.277344 105.460938 202.828125 105.589844 202.40625 C 106.609375 199.121094 110.070312 197.003906 113.734375 194.765625 C 119.816406 191.050781 126.714844 186.835938 125.199219 176.128906 C 124.679688 172.464844 121.867188 169.136719 118.195312 167.847656 C 115.40625 166.863281 112.695312 167.339844 110.757812 169.15625 C 110.433594 169.457031 109.925781 169.441406 109.621094 169.117188 C 109.320312 168.792969 109.335938 168.285156 109.660156 167.984375 C 112.046875 165.746094 115.355469 165.144531 118.730469 166.332031 C 122.949219 167.816406 126.1875 171.664062 126.789062 175.902344 C 128.453125 187.65625 120.757812 192.355469 114.574219 196.132812 C 111.027344 198.300781 107.964844 200.171875 107.125 202.878906 C 107.019531 203.222656 106.703125 203.445312 106.359375 203.445312 " fill-opacity="1" fill-rule="nonzero"/></g><g clip-path="url(#c129b0292f)"><path fill="#ab0520" d="M 106.359375 203.445312 C 106.015625 203.445312 105.699219 203.222656 105.589844 202.878906 C 104.753906 200.171875 101.691406 198.300781 98.144531 196.132812 C 91.960938 192.355469 84.265625 187.65625 85.929688 175.902344 C 86.527344 171.664062 89.765625 167.816406 93.988281 166.332031 C 97.363281 165.144531 100.667969 165.746094 103.058594 167.984375 C 103.382812 168.285156 103.398438 168.792969 103.09375 169.117188 C 102.792969 169.441406 102.28125 169.457031 101.960938 169.15625 C 100.023438 167.339844 97.3125 166.863281 94.519531 167.847656 C 90.851562 169.136719 88.039062 172.464844 87.519531 176.128906 C 86.003906 186.835938 92.898438 191.050781 98.980469 194.765625 C 102.648438 197.003906 106.109375 199.121094 107.125 202.40625 C 107.257812 202.828125 107.019531 203.277344 106.597656 203.40625 C 106.515625 203.433594 106.4375 203.445312 106.359375 203.445312 " fill-opacity="1" fill-rule="nonzero"/></g><g clip-path="url(#d2b334e55e)"><path fill="#ab0520" d="M 98.765625 225.894531 C 96.53125 225.894531 94.445312 224.96875 92.902344 223.285156 C 91.191406 221.425781 90.289062 218.800781 90.289062 215.6875 L 90.289062 208.222656 C 90.289062 207.78125 90.648438 207.421875 91.089844 207.421875 C 91.535156 207.421875 91.894531 207.78125 91.894531 208.222656 L 91.894531 215.6875 C 91.894531 218.390625 92.652344 220.644531 94.082031 222.203125 C 95.320312 223.550781 96.984375 224.292969 98.765625 224.292969 C 102.035156 224.292969 105.554688 221.65625 105.554688 215.867188 L 105.554688 202.640625 C 105.554688 202.199219 105.914062 201.839844 106.359375 201.839844 C 106.800781 201.839844 107.160156 202.199219 107.160156 202.640625 L 107.160156 215.867188 C 107.160156 218.921875 106.269531 221.5 104.578125 223.328125 C 103.046875 224.984375 100.984375 225.894531 98.765625 225.894531 " fill-opacity="1" fill-rule="nonzero"/></g><g clip-path="url(#bb94af199c)"><path fill="#000000" d="M -1368.460938 221.988281 C -1243.460938 220.761719 -1118.460938 219.992188 -993.460938 219.683594 L -946.585938 219.507812 L -899.710938 219.398438 L -805.960938 219.191406 L -618.460938 219.035156 L -430.960938 219.199219 L -337.210938 219.40625 L -290.335938 219.519531 L -243.460938 219.691406 C -118.460938 220.128906 6.539062 220.894531 131.539062 221.988281 L 131.539062 222.335938 L -618.460938 222.511719 L -1368.460938 222.335938 Z M -1368.460938 221.988281 " fill-opacity="1" fill-rule="nonzero"/></g><g clip-path="url(#30dc9fc9a5)"><path fill="#000000" d="M -1197.726562 221.988281 C -1072.726562 220.761719 -947.726562 219.992188 -822.726562 219.683594 L -775.855469 219.507812 L -728.976562 219.398438 L -635.226562 219.191406 L -447.726562 219.035156 L -260.226562 219.199219 L -166.476562 219.40625 L -119.601562 219.519531 L -72.726562 219.691406 C 52.273438 220.128906 177.273438 220.894531 302.273438 221.988281 L 302.273438 222.335938 L -447.726562 222.511719 L -1197.726562 222.335938 Z M -1197.726562 221.988281 " fill-opacity="1" fill-rule="nonzero"/></g><g clip-path="url(#02d0566aea)"><path fill="#ffffff" d="M 79.671875 196.328125 L 95.421875 196.328125 L 95.421875 208.328125 L 79.671875 208.328125 L 79.671875 196.328125 " fill-opacity="1" fill-rule="nonzero"/></g><g fill="#13701b" fill-opacity="1"><g transform="translate(128.404098, 195.637955)"><g><path d="M 26.359375 -22.5625 L 26.359375 0 L 23.6875 0 L 23.6875 -16.578125 C 23.6875 -16.804688 23.691406 -17.046875 23.703125 -17.296875 C 23.722656 -17.546875 23.742188 -17.800781 23.765625 -18.0625 L 16.015625 -3.953125 C 15.773438 -3.484375 15.410156 -3.25 14.921875 -3.25 L 14.46875 -3.25 C 13.976562 -3.25 13.613281 -3.484375 13.375 -3.953125 L 5.46875 -18.125 C 5.53125 -17.570312 5.5625 -17.054688 5.5625 -16.578125 L 5.5625 0 L 2.875 0 L 2.875 -22.5625 L 5.140625 -22.5625 C 5.410156 -22.5625 5.617188 -22.535156 5.765625 -22.484375 C 5.910156 -22.429688 6.050781 -22.285156 6.1875 -22.046875 L 13.984375 -8.15625 C 14.109375 -7.90625 14.226562 -7.644531 14.34375 -7.375 C 14.46875 -7.101562 14.582031 -6.820312 14.6875 -6.53125 C 14.800781 -6.820312 14.914062 -7.101562 15.03125 -7.375 C 15.144531 -7.65625 15.269531 -7.921875 15.40625 -8.171875 L 23.0625 -22.046875 C 23.1875 -22.285156 23.320312 -22.429688 23.46875 -22.484375 C 23.625 -22.535156 23.835938 -22.5625 24.109375 -22.5625 Z M 26.359375 -22.5625 "/></g></g></g><g fill="#13701b" fill-opacity="1"><g transform="translate(157.651715, 195.637955)"><g><path d="M 16.8125 -2.484375 L 16.796875 0 L 2.875 0 L 2.875 -22.5625 L 16.796875 -22.5625 L 16.796875 -20.078125 L 5.9375 -20.078125 L 5.9375 -12.578125 L 14.71875 -12.578125 L 14.71875 -10.1875 L 5.9375 -10.1875 L 5.9375 -2.484375 Z M 16.8125 -2.484375 "/></g></g></g><g fill="#13701b" fill-opacity="1"><g transform="translate(175.842888, 195.637955)"><g><path d="M 22.4375 -11.28125 C 22.4375 -9.582031 22.171875 -8.039062 21.640625 -6.65625 C 21.109375 -5.269531 20.351562 -4.082031 19.375 -3.09375 C 18.394531 -2.113281 17.21875 -1.351562 15.84375 -0.8125 C 14.476562 -0.269531 12.96875 0 11.3125 0 L 2.875 0 L 2.875 -22.5625 L 11.3125 -22.5625 C 12.96875 -22.5625 14.476562 -22.289062 15.84375 -21.75 C 17.21875 -21.21875 18.394531 -20.453125 19.375 -19.453125 C 20.351562 -18.460938 21.109375 -17.273438 21.640625 -15.890625 C 22.171875 -14.503906 22.4375 -12.96875 22.4375 -11.28125 Z M 19.3125 -11.28125 C 19.3125 -12.664062 19.117188 -13.898438 18.734375 -14.984375 C 18.359375 -16.078125 17.820312 -17.003906 17.125 -17.765625 C 16.4375 -18.523438 15.597656 -19.101562 14.609375 -19.5 C 13.628906 -19.894531 12.53125 -20.09375 11.3125 -20.09375 L 5.9375 -20.09375 L 5.9375 -2.46875 L 11.3125 -2.46875 C 12.53125 -2.46875 13.628906 -2.664062 14.609375 -3.0625 C 15.597656 -3.46875 16.4375 -4.046875 17.125 -4.796875 C 17.820312 -5.546875 18.359375 -6.46875 18.734375 -7.5625 C 19.117188 -8.65625 19.3125 -9.894531 19.3125 -11.28125 Z M 19.3125 -11.28125 "/></g></g></g><g fill="#13701b" fill-opacity="1"><g transform="translate(199.798529, 195.637955)"><g><path d="M 5.9375 0 L 2.875 0 L 2.875 -22.5625 L 5.9375 -22.5625 Z M 5.9375 0 "/></g></g></g><g fill="#13701b" fill-opacity="1"><g transform="translate(208.61849, 195.637955)"><g><path d="M 18.734375 -4.65625 C 18.898438 -4.65625 19.046875 -4.585938 19.171875 -4.453125 L 20.375 -3.15625 C 19.457031 -2.082031 18.335938 -1.242188 17.015625 -0.640625 C 15.703125 -0.046875 14.109375 0.25 12.234375 0.25 C 10.617188 0.25 9.148438 -0.03125 7.828125 -0.59375 C 6.503906 -1.15625 5.375 -1.941406 4.4375 -2.953125 C 3.507812 -3.960938 2.785156 -5.175781 2.265625 -6.59375 C 1.753906 -8.007812 1.5 -9.570312 1.5 -11.28125 C 1.5 -12.976562 1.765625 -14.535156 2.296875 -15.953125 C 2.835938 -17.367188 3.59375 -18.585938 4.5625 -19.609375 C 5.53125 -20.628906 6.691406 -21.421875 8.046875 -21.984375 C 9.398438 -22.546875 10.894531 -22.828125 12.53125 -22.828125 C 14.144531 -22.828125 15.5625 -22.566406 16.78125 -22.046875 C 18.007812 -21.535156 19.09375 -20.835938 20.03125 -19.953125 L 19.03125 -18.546875 C 18.96875 -18.441406 18.882812 -18.351562 18.78125 -18.28125 C 18.675781 -18.21875 18.539062 -18.1875 18.375 -18.1875 C 18.1875 -18.1875 17.957031 -18.289062 17.6875 -18.5 C 17.414062 -18.707031 17.054688 -18.9375 16.609375 -19.1875 C 16.171875 -19.4375 15.617188 -19.660156 14.953125 -19.859375 C 14.296875 -20.066406 13.484375 -20.171875 12.515625 -20.171875 C 11.347656 -20.171875 10.28125 -19.96875 9.3125 -19.5625 C 8.351562 -19.164062 7.523438 -18.582031 6.828125 -17.8125 C 6.128906 -17.039062 5.582031 -16.101562 5.1875 -15 C 4.800781 -13.90625 4.609375 -12.664062 4.609375 -11.28125 C 4.609375 -9.875 4.8125 -8.617188 5.21875 -7.515625 C 5.625 -6.410156 6.175781 -5.476562 6.875 -4.71875 C 7.570312 -3.957031 8.394531 -3.375 9.34375 -2.96875 C 10.289062 -2.570312 11.316406 -2.375 12.421875 -2.375 C 13.097656 -2.375 13.707031 -2.410156 14.25 -2.484375 C 14.789062 -2.566406 15.285156 -2.691406 15.734375 -2.859375 C 16.191406 -3.035156 16.617188 -3.25 17.015625 -3.5 C 17.410156 -3.757812 17.800781 -4.066406 18.1875 -4.421875 C 18.363281 -4.578125 18.546875 -4.65625 18.734375 -4.65625 Z M 18.734375 -4.65625 "/></g></g></g><g fill="#13701b" fill-opacity="1"><g transform="translate(229.660397, 195.637955)"><g><path d="M 18.140625 -20 L 10.84375 -20 L 10.84375 0 L 7.796875 0 L 7.796875 -20 L 0.46875 -20 L 0.46875 -22.5625 L 18.140625 -22.5625 Z M 18.140625 -20 "/></g></g></g><g fill="#13701b" fill-opacity="1"><g transform="translate(248.261062, 195.637955)"><g><path d="M 9.140625 -11.640625 C 10.015625 -11.640625 10.789062 -11.742188 11.46875 -11.953125 C 12.144531 -12.171875 12.710938 -12.476562 13.171875 -12.875 C 13.628906 -13.269531 13.972656 -13.738281 14.203125 -14.28125 C 14.429688 -14.832031 14.546875 -15.4375 14.546875 -16.09375 C 14.546875 -17.4375 14.101562 -18.445312 13.21875 -19.125 C 12.34375 -19.8125 11.023438 -20.15625 9.265625 -20.15625 L 5.921875 -20.15625 L 5.921875 -11.640625 Z M 19.5625 0 L 16.859375 0 C 16.296875 0 15.882812 -0.210938 15.625 -0.640625 L 9.765625 -8.703125 C 9.585938 -8.960938 9.394531 -9.144531 9.1875 -9.25 C 8.988281 -9.363281 8.671875 -9.421875 8.234375 -9.421875 L 5.921875 -9.421875 L 5.921875 0 L 2.875 0 L 2.875 -22.5625 L 9.265625 -22.5625 C 10.691406 -22.5625 11.921875 -22.414062 12.953125 -22.125 C 13.992188 -21.84375 14.851562 -21.425781 15.53125 -20.875 C 16.207031 -20.332031 16.707031 -19.675781 17.03125 -18.90625 C 17.363281 -18.132812 17.53125 -17.269531 17.53125 -16.3125 C 17.53125 -15.519531 17.40625 -14.773438 17.15625 -14.078125 C 16.90625 -13.390625 16.539062 -12.769531 16.0625 -12.21875 C 15.582031 -11.664062 15 -11.191406 14.3125 -10.796875 C 13.625 -10.410156 12.84375 -10.117188 11.96875 -9.921875 C 12.351562 -9.703125 12.691406 -9.382812 12.984375 -8.96875 Z M 19.5625 0 "/></g></g></g><g clip-path="url(#78f4b3fc8c)"><path fill="#769683" d="M 270.550781 165.320312 C 270.550781 165.320312 270.628906 165.4375 270.792969 165.648438 C 270.949219 165.859375 271.195312 166.160156 271.519531 166.53125 C 271.847656 166.902344 272.261719 167.332031 272.757812 167.804688 C 273.253906 168.269531 273.84375 168.769531 274.515625 169.273438 C 274.683594 169.398438 274.851562 169.523438 275.035156 169.644531 C 275.125 169.707031 275.214844 169.769531 275.304688 169.832031 C 275.398438 169.894531 275.492188 169.953125 275.585938 170.011719 C 275.683594 170.074219 275.777344 170.132812 275.875 170.195312 C 275.972656 170.253906 276.070312 170.3125 276.171875 170.375 C 276.269531 170.433594 276.371094 170.492188 276.472656 170.550781 C 276.574219 170.609375 276.679688 170.664062 276.785156 170.722656 C 277.621094 171.179688 278.542969 171.585938 279.523438 171.925781 C 279.765625 172.015625 280.019531 172.082031 280.269531 172.164062 C 280.519531 172.246094 280.78125 172.300781 281.035156 172.371094 C 281.292969 172.445312 281.558594 172.488281 281.820312 172.546875 C 282.082031 172.605469 282.351562 172.644531 282.621094 172.6875 C 283.695312 172.855469 284.804688 172.929688 285.902344 172.910156 L 286.328125 172.902344 L 286.539062 172.898438 C 286.609375 172.894531 286.675781 172.890625 286.746094 172.882812 C 287.015625 172.863281 287.289062 172.851562 287.5625 172.824219 C 287.832031 172.789062 288.105469 172.757812 288.378906 172.726562 C 288.648438 172.683594 288.917969 172.636719 289.1875 172.59375 C 289.453125 172.539062 289.71875 172.484375 289.984375 172.429688 C 290.246094 172.363281 290.503906 172.300781 290.765625 172.234375 C 291.023438 172.164062 291.273438 172.082031 291.527344 172.007812 C 291.777344 171.925781 292.027344 171.839844 292.273438 171.757812 C 293.25 171.402344 294.167969 170.988281 295.011719 170.535156 C 295.21875 170.417969 295.425781 170.300781 295.628906 170.1875 C 295.828125 170.066406 296.023438 169.949219 296.214844 169.832031 C 296.40625 169.710938 296.59375 169.589844 296.773438 169.472656 C 296.953125 169.347656 297.132812 169.230469 297.304688 169.109375 C 297.984375 168.621094 298.589844 168.140625 299.105469 167.691406 C 299.621094 167.238281 300.054688 166.828125 300.398438 166.472656 C 300.742188 166.121094 301.003906 165.835938 301.179688 165.632812 C 301.351562 165.433594 301.4375 165.320312 301.4375 165.320312 C 301.4375 165.320312 301.367188 165.445312 301.21875 165.664062 C 301.066406 165.882812 300.84375 166.203125 300.527344 166.589844 C 300.214844 166.976562 299.820312 167.4375 299.335938 167.933594 C 298.847656 168.429688 298.277344 168.96875 297.605469 169.507812 C 297.4375 169.640625 297.265625 169.773438 297.089844 169.914062 C 296.90625 170.046875 296.722656 170.179688 296.539062 170.316406 C 296.347656 170.449219 296.152344 170.578125 295.953125 170.714844 C 295.75 170.839844 295.542969 170.96875 295.332031 171.101562 C 294.484375 171.605469 293.550781 172.082031 292.546875 172.480469 C 292.292969 172.574219 292.039062 172.675781 291.777344 172.765625 C 291.515625 172.847656 291.253906 172.9375 290.988281 173.019531 C 290.71875 173.09375 290.449219 173.167969 290.175781 173.242188 C 289.902344 173.300781 289.625 173.363281 289.347656 173.425781 C 289.066406 173.476562 288.785156 173.523438 288.503906 173.574219 C 288.21875 173.613281 287.933594 173.644531 287.648438 173.679688 C 287.359375 173.714844 287.070312 173.726562 286.777344 173.75 C 286.703125 173.757812 286.632812 173.761719 286.558594 173.765625 L 286.347656 173.773438 L 285.925781 173.78125 C 284.761719 173.796875 283.609375 173.714844 282.484375 173.523438 C 282.203125 173.46875 281.921875 173.429688 281.648438 173.359375 C 281.375 173.292969 281.097656 173.238281 280.832031 173.15625 C 280.292969 173.011719 279.769531 172.84375 279.261719 172.648438 C 278.246094 172.269531 277.308594 171.796875 276.460938 171.285156 C 276.355469 171.21875 276.25 171.15625 276.148438 171.09375 C 276.046875 171.027344 275.945312 170.960938 275.84375 170.894531 C 275.742188 170.828125 275.644531 170.761719 275.546875 170.699219 C 275.449219 170.628906 275.355469 170.558594 275.261719 170.492188 C 275.167969 170.421875 275.070312 170.355469 274.980469 170.285156 C 274.890625 170.214844 274.800781 170.148438 274.714844 170.078125 C 274.535156 169.941406 274.371094 169.800781 274.203125 169.664062 C 273.546875 169.109375 272.988281 168.550781 272.519531 168.035156 C 272.050781 167.523438 271.679688 167.042969 271.386719 166.640625 C 271.09375 166.238281 270.886719 165.90625 270.75 165.675781 C 270.613281 165.449219 270.550781 165.320312 270.550781 165.320312 " fill-opacity="1" fill-rule="nonzero"/></g><path fill="#769683" d="M 273.574219 177.398438 C 271.746094 177.398438 270.253906 178.886719 270.253906 180.71875 C 270.253906 182.546875 271.746094 184.039062 273.574219 184.039062 C 275.402344 184.039062 276.890625 182.546875 276.890625 180.71875 C 276.890625 178.886719 275.402344 177.398438 273.574219 177.398438 Z M 273.574219 185.34375 C 271.023438 185.34375 268.949219 183.269531 268.949219 180.71875 C 268.949219 178.167969 271.023438 176.089844 273.574219 176.089844 C 276.125 176.089844 278.199219 178.167969 278.199219 180.71875 C 278.199219 183.269531 276.125 185.34375 273.574219 185.34375 " fill-opacity="1" fill-rule="nonzero"/><path fill="#769683" d="M 275.757812 180.71875 C 275.757812 179.511719 274.78125 178.53125 273.574219 178.53125 C 272.367188 178.53125 271.390625 179.511719 271.390625 180.71875 C 271.390625 181.925781 272.367188 182.902344 273.574219 182.902344 C 274.78125 182.902344 275.757812 181.925781 275.757812 180.71875 " fill-opacity="1" fill-rule="nonzero"/><g clip-path="url(#5a233b05f6)"><path fill="#769683" d="M 285.996094 180.796875 C 285.929688 180.796875 285.867188 180.785156 285.800781 180.765625 C 285.457031 180.660156 285.265625 180.292969 285.371094 179.949219 C 286.199219 177.273438 289.015625 175.550781 291.996094 173.726562 C 296.945312 170.695312 302.554688 167.265625 301.320312 158.539062 C 300.898438 155.554688 298.609375 152.84375 295.625 151.789062 C 293.355469 150.992188 291.148438 151.378906 289.574219 152.855469 C 289.308594 153.105469 288.894531 153.089844 288.648438 152.828125 C 288.402344 152.5625 288.417969 152.148438 288.679688 151.902344 C 290.625 150.082031 293.3125 149.589844 296.058594 150.558594 C 299.492188 151.769531 302.125 154.902344 302.613281 158.355469 C 303.96875 167.929688 297.707031 171.761719 292.675781 174.839844 C 289.792969 176.605469 287.300781 178.128906 286.617188 180.335938 C 286.53125 180.617188 286.273438 180.796875 285.996094 180.796875 " fill-opacity="1" fill-rule="nonzero"/></g><g clip-path="url(#0993208054)"><path fill="#769683" d="M 285.996094 180.796875 C 285.714844 180.796875 285.457031 180.617188 285.371094 180.335938 C 284.6875 178.128906 282.195312 176.605469 279.3125 174.839844 C 274.28125 171.761719 268.019531 167.929688 269.375 158.355469 C 269.863281 154.902344 272.496094 151.769531 275.929688 150.558594 C 278.675781 149.589844 281.367188 150.082031 283.308594 151.902344 C 283.574219 152.148438 283.585938 152.5625 283.339844 152.828125 C 283.09375 153.089844 282.679688 153.101562 282.417969 152.855469 C 280.839844 151.378906 278.632812 150.992188 276.363281 151.789062 C 273.378906 152.84375 271.089844 155.554688 270.667969 158.539062 C 269.433594 167.265625 275.042969 170.695312 279.992188 173.726562 C 282.976562 175.550781 285.792969 177.273438 286.617188 179.949219 C 286.726562 180.292969 286.53125 180.660156 286.1875 180.765625 C 286.125 180.785156 286.058594 180.796875 285.996094 180.796875 " fill-opacity="1" fill-rule="nonzero"/></g><g clip-path="url(#53ad129b36)"><path fill="#769683" d="M 279.816406 199.089844 C 278 199.089844 276.304688 198.335938 275.046875 196.964844 C 273.65625 195.449219 272.921875 193.308594 272.921875 190.773438 L 272.921875 184.691406 C 272.921875 184.328125 273.214844 184.039062 273.574219 184.039062 C 273.933594 184.039062 274.226562 184.328125 274.226562 184.691406 L 274.226562 190.773438 C 274.226562 192.976562 274.84375 194.8125 276.007812 196.082031 C 277.015625 197.179688 278.367188 197.78125 279.816406 197.78125 C 282.476562 197.78125 285.339844 195.636719 285.339844 190.917969 L 285.339844 180.140625 C 285.339844 179.78125 285.632812 179.488281 285.996094 179.488281 C 286.355469 179.488281 286.648438 179.78125 286.648438 180.140625 L 286.648438 190.917969 C 286.648438 193.40625 285.921875 195.507812 284.546875 196.996094 C 283.300781 198.347656 281.621094 199.089844 279.816406 199.089844 " fill-opacity="1" fill-rule="nonzero"/></g><g clip-path="url(#1b2e89be77)"><path fill="#ffffff" d="M 93.503906 198.757812 L 97.253906 198.757812 L 97.253906 208.507812 L 93.503906 208.507812 L 93.503906 198.757812 " fill-opacity="1" fill-rule="nonzero"/></g></svg>